<svg viewBox="0 0 32 32" xmlns="http://www.w3.org/2000/svg">
    <path fill-rule="evenodd" clip-rule="evenodd"
          d="M16.484 4.06776C16.3709 4.02409 16.2459 4.02298 16.132 4.06463L4.32818 8.38405C4.13108 8.45617 4 8.64371 4 8.85359V21.8907C4 22.0844 4.11187 22.2607 4.28714 22.3431L16.0919 27.8971C16.2301 27.9621 16.3904 27.9604 16.5272 27.8925L27.7224 22.3327C27.8925 22.2482 28 22.0747 28 21.8849V8.85883C28 8.6522 27.8729 8.46686 27.6802 8.39241L16.484 4.06776ZM6.49291 10.7636C6.16349 10.6258 5.8 10.8678 5.8 11.2248V20.7593C5.8 20.953 5.91187 21.1293 6.08714 21.2117L14.6871 25.2579C15.0188 25.4139 15.4 25.172 15.4 24.8055V14.8214C15.4 14.6198 15.2789 14.4379 15.0929 14.3601L6.49291 10.7636ZM17.9224 25.2007C17.59 25.3658 17.2 25.124 17.2 24.7529V14.8018C17.2 14.6037 17.3169 14.4244 17.4981 14.3444L25.4981 10.8128C25.8286 10.6669 26.2 10.909 26.2 11.2703V20.7799C26.2 20.9698 26.0925 21.1433 25.9224 21.2277L17.9224 25.2007ZM16.4869 12.8343C16.3614 12.8897 16.2187 12.8911 16.0921 12.8382L8.52907 9.67523C8.10949 9.49976 8.12307 8.90069 8.55016 8.7444L11.118 7.80474L19.7257 11.4046L16.4869 12.8343ZM21.9823 10.4084L13.5919 6.89948L16.1148 5.97625C16.2286 5.9346 16.3537 5.93571 16.4668 5.97939L23.6316 8.74688C24.0474 8.90748 24.0611 9.49071 23.6534 9.67071L21.9823 10.4084Z"
    />
</svg>
