<svg viewBox="0 0 124 40" fill="none" xmlns="http://www.w3.org/2000/svg">
    <g clip-path="url(#clip0_5333_3329)">
        <g clip-path="url(#clip1_5333_3329)">
            <path
                d="M113.839 0.00013H10.2207C9.84304 0.00013 9.46987 0.00013 9.09317 0.00213C8.77784 0.00413 8.46502 0.00994 8.14665 0.01483C7.45502 0.0227318 6.76502 0.0818063 6.08264 0.19154C5.40121 0.303663 4.74114 0.515046 4.12473 0.81854C3.50908 1.1246 2.94654 1.5223 2.45752 1.9972C1.96594 2.47077 1.55616 3.01815 1.24395 3.61829C0.930887 4.21724 0.713804 4.85907 0.600205 5.52161C0.485526 6.18332 0.423816 6.85265 0.415629 7.52361C0.406071 7.83021 0.405061 8.13783 0.400024 8.44447V31.5587C0.405061 31.8692 0.406071 32.17 0.415629 32.4806C0.423818 33.1516 0.485528 33.8209 0.600205 34.4825C0.71349 35.1455 0.930586 35.7877 1.24395 36.3868C1.55602 36.985 1.96585 37.5302 2.45752 38.0011C2.94469 38.4781 3.50759 38.8761 4.12473 39.1798C4.74113 39.4841 5.40114 39.6968 6.08264 39.8106C6.76513 39.9195 7.45507 39.9786 8.14665 39.9874C8.46502 39.9942 8.77784 39.9981 9.09317 39.9981C9.46986 40.0001 9.84306 40.0001 10.2207 40.0001H113.839C114.209 40.0001 114.585 40.0001 114.955 39.9981C115.269 39.9981 115.591 39.9942 115.905 39.9874C116.595 39.9791 117.284 39.92 117.965 39.8106C118.649 39.696 119.311 39.4834 119.93 39.1798C120.547 38.8759 121.109 38.478 121.596 38.0011C122.086 37.5284 122.497 36.9836 122.813 36.3868C123.124 35.7872 123.339 35.1451 123.451 34.4825C123.566 33.8208 123.63 33.1516 123.642 32.4806C123.646 32.17 123.646 31.8692 123.646 31.5587C123.654 31.1954 123.654 30.8341 123.654 30.4649V9.53626C123.654 9.17005 123.654 8.80677 123.646 8.44447C123.646 8.13783 123.646 7.83021 123.642 7.52357C123.63 6.85255 123.566 6.18337 123.451 5.52157C123.339 4.85941 123.124 4.21763 122.813 3.61825C122.177 2.41533 121.169 1.43616 119.93 0.81845C119.311 0.515697 118.649 0.30437 117.965 0.19145C117.284 0.0812328 116.595 0.0221378 115.905 0.01469C115.591 0.00981 115.269 0.00395 114.955 0.002C114.585 0 114.209 0.00013 113.839 0.00013Z"
                fill="#A6A6A6"/>
            <path
                d="M9.09817 39.125C8.78435 39.125 8.47811 39.1211 8.16675 39.1143C7.52175 39.1061 6.87825 39.0516 6.24154 38.9512C5.64783 38.8519 5.0727 38.6673 4.53509 38.4033C4.00242 38.1415 3.51658 37.7983 3.09618 37.3867C2.6697 36.98 2.31464 36.5082 2.04506 35.9902C1.77251 35.4688 1.58389 34.9099 1.48577 34.333C1.37981 33.7131 1.32248 33.0863 1.31427 32.458C1.30774 32.2471 1.29919 31.5449 1.29919 31.5449V8.44434C1.29919 8.44434 1.3083 7.75293 1.31433 7.5498C1.32218 6.92248 1.37918 6.29665 1.48482 5.67773C1.58312 5.09925 1.77189 4.53875 2.04458 4.01563C2.31317 3.49794 2.66627 3.02586 3.09018 2.61768C3.51361 2.20562 4.00101 1.8606 4.53459 1.59521C5.07096 1.33209 5.64501 1.14873 6.23751 1.05127C6.87631 0.949836 7.52204 0.894996 8.16928 0.88721L9.09867 0.875H114.95L115.891 0.8877C116.532 0.895099 117.172 0.94945 117.805 1.05029C118.403 1.14898 118.983 1.33362 119.526 1.59814C120.595 2.13299 121.465 2.97916 122.013 4.01807C122.282 4.53758 122.468 5.09351 122.565 5.66699C122.672 6.29099 122.731 6.92174 122.744 7.5542C122.747 7.8374 122.747 8.1416 122.747 8.44434C122.755 8.81934 122.755 9.17627 122.755 9.53613V30.4648C122.755 30.8281 122.755 31.1826 122.747 31.54C122.747 31.8652 122.747 32.1631 122.743 32.4697C122.731 33.0909 122.672 33.7104 122.567 34.3232C122.471 34.9043 122.283 35.4675 122.01 35.9932C121.739 36.5056 121.386 36.9733 120.964 37.3789C120.544 37.7927 120.057 38.1379 119.523 38.4014C118.982 38.6674 118.403 38.8527 117.805 38.9512C117.168 39.0522 116.525 39.1067 115.88 39.1143C115.578 39.1211 115.262 39.125 114.955 39.125L113.839 39.127L9.09817 39.125Z"
                fill="black"/>
            <path
                d="M25.912 20.3007C25.9231 19.466 26.1514 18.6477 26.5758 17.9217C27.0002 17.1957 27.6068 16.5858 28.3393 16.1486C27.874 15.5035 27.2602 14.9725 26.5465 14.598C25.8329 14.2234 25.0392 14.0156 24.2284 13.991C22.4988 13.8147 20.822 14.9958 19.9406 14.9958C19.0421 14.9958 17.6851 14.0085 16.2238 14.0376C15.2786 14.0673 14.3574 14.3341 13.5501 14.8122C12.7427 15.2903 12.0766 15.9632 11.6167 16.7655C9.6247 20.1139 11.1106 25.035 13.0188 27.7416C13.9735 29.0669 15.0892 30.5474 16.5492 30.4949C17.9779 30.4374 18.5115 29.6104 20.236 29.6104C21.9445 29.6104 22.4451 30.4949 23.9347 30.4615C25.4678 30.4374 26.4336 29.1303 27.3549 27.7924C28.0408 26.848 28.5686 25.8043 28.9188 24.6999C28.0282 24.3341 27.2681 23.722 26.7334 22.9397C26.1987 22.1574 25.913 21.2396 25.912 20.3007Z"
                fill="white"/>
            <path
                d="M23.0985 12.2109C23.9343 11.2367 24.3461 9.98451 24.2464 8.72028C22.9694 8.8505 21.7898 9.44306 20.9426 10.3799C20.5284 10.8376 20.2112 11.37 20.009 11.9468C19.8069 12.5235 19.7238 13.1333 19.7646 13.7413C20.4033 13.7477 21.0352 13.6132 21.6127 13.3482C22.1902 13.0831 22.6982 12.6942 23.0985 12.2109Z"
                fill="white"/>
            <path
                d="M43.9714 27.1396H39.096L37.9251 30.4961H35.8601L40.478 18.0781H42.6235L47.2414 30.4961H45.1412L43.9714 27.1396ZM39.6009 25.5908H43.4655L41.5604 20.1435H41.507L39.6009 25.5908Z"
                fill="white"/>
            <path
                d="M57.2145 25.9697C57.2145 28.7832 55.6635 30.5908 53.3228 30.5908C52.7299 30.6209 52.1402 30.4883 51.6213 30.2082C51.1024 29.928 50.6753 29.5117 50.3887 29.0068H50.3444V33.4912H48.4303V21.4423H50.2831V22.9482H50.3183C50.618 22.4457 51.0524 22.0316 51.5752 21.7497C52.0981 21.4679 52.6899 21.3289 53.2876 21.3476C55.6544 21.3476 57.2145 23.164 57.2145 25.9697ZM55.247 25.9697C55.247 24.1367 54.2713 22.9316 52.7827 22.9316C51.3202 22.9316 50.3364 24.1621 50.3364 25.9697C50.3364 27.7939 51.3202 29.0156 52.7827 29.0156C54.2714 29.0156 55.247 27.8193 55.247 25.9697Z"
                fill="white"/>
            <path
                d="M67.4783 25.9697C67.4783 28.7832 65.9273 30.5908 63.5866 30.5908C62.9937 30.621 62.404 30.4883 61.8851 30.2082C61.3662 29.9281 60.939 29.5117 60.6525 29.0068H60.6082V33.4912H58.6941V21.4424H60.5469V22.9483H60.5821C60.8818 22.4458 61.3161 22.0316 61.839 21.7498C62.3619 21.4679 62.9537 21.329 63.5514 21.3477C65.9182 21.3477 67.4783 23.1641 67.4783 25.9697ZM65.5108 25.9697C65.5108 24.1367 64.5351 22.9317 63.0465 22.9317C61.584 22.9317 60.6002 24.1621 60.6002 25.9697C60.6002 27.794 61.584 29.0156 63.0465 29.0156C64.5351 29.0156 65.5108 27.8194 65.5108 25.9697Z"
                fill="white"/>
            <path
                d="M74.2618 27.0361C74.4036 28.2676 75.6358 29.0761 77.3196 29.0761C78.933 29.0761 80.0938 28.2675 80.0938 27.1572C80.0938 26.1933 79.3937 25.6162 77.7361 25.2207L76.0784 24.833C73.7297 24.2822 72.6394 23.2158 72.6394 21.4853C72.6394 19.3427 74.5626 17.871 77.2935 17.871C79.9962 17.871 81.849 19.3427 81.9114 21.4853H79.9791C79.8634 20.246 78.8083 19.498 77.2663 19.498C75.7243 19.498 74.6692 20.2548 74.6692 21.3564C74.6692 22.2343 75.3431 22.7509 76.9917 23.1464L78.4009 23.4823C81.0252 24.0849 82.1155 25.1083 82.1155 26.9247C82.1155 29.248 80.2094 30.703 77.1778 30.703C74.3412 30.703 72.4261 29.2821 72.3024 27.036L74.2618 27.0361Z"
                fill="white"/>
            <path
                d="M86.2466 19.2998V21.4424H88.02V22.9141H86.2466V27.9053C86.2466 28.6807 86.6017 29.042 87.3812 29.042C87.5918 29.0384 87.8019 29.0241 88.0109 28.999V30.4619C87.6604 30.5255 87.3042 30.5543 86.9477 30.5478C85.0597 30.5478 84.3234 29.8593 84.3234 28.1035V22.9141H82.9675V21.4424H84.3234V19.2998H86.2466Z"
                fill="white"/>
            <path
                d="M89.047 25.9697C89.047 23.1211 90.7751 21.3311 93.4698 21.3311C96.1735 21.3311 97.8935 23.1211 97.8935 25.9697C97.8935 28.8262 96.1826 30.6084 93.4698 30.6084C90.7579 30.6084 89.047 28.8262 89.047 25.9697ZM95.9432 25.9697C95.9432 24.0156 95.0208 22.8623 93.4698 22.8623C91.9187 22.8623 90.9974 24.0244 90.9974 25.9697C90.9974 27.9316 91.9187 29.0762 93.4698 29.0762C95.0208 29.0762 95.9432 27.9316 95.9432 25.9697Z"
                fill="white"/>
            <path
                d="M99.4717 21.4424H101.297V22.9834H101.342C101.465 22.5021 101.756 22.0768 102.164 21.7789C102.573 21.481 103.074 21.3287 103.585 21.3476C103.805 21.3469 104.025 21.3702 104.24 21.417V23.1553C103.962 23.0726 103.672 23.0347 103.38 23.043C103.102 23.032 102.825 23.0796 102.568 23.1825C102.31 23.2854 102.079 23.4411 101.89 23.639C101.7 23.8369 101.557 24.0723 101.47 24.3289C101.383 24.5856 101.354 24.8575 101.386 25.126V30.4961H99.4717L99.4717 21.4424Z"
                fill="white"/>
            <path
                d="M113.066 27.8369C112.808 29.4805 111.16 30.6084 109.05 30.6084C106.338 30.6084 104.654 28.8437 104.654 26.0127C104.654 23.1729 106.347 21.3311 108.97 21.3311C111.55 21.3311 113.172 23.0518 113.172 25.7969V26.4336H106.586V26.5459C106.556 26.8791 106.599 27.2148 106.712 27.5306C106.826 27.8464 107.007 28.1352 107.244 28.3778C107.482 28.6203 107.769 28.8111 108.088 28.9374C108.407 29.0637 108.75 29.1226 109.095 29.1103C109.547 29.1515 110.001 29.0498 110.389 28.8203C110.777 28.5909 111.078 28.246 111.248 27.8369L113.066 27.8369ZM106.595 25.1348H111.257C111.274 24.8352 111.228 24.5354 111.12 24.2541C111.012 23.9729 110.846 23.7164 110.631 23.5006C110.416 23.2849 110.158 23.1145 109.872 23.0003C109.586 22.8861 109.279 22.8305 108.97 22.8369C108.658 22.8351 108.349 22.8933 108.061 23.008C107.772 23.1227 107.51 23.2918 107.289 23.5054C107.069 23.7191 106.894 23.973 106.774 24.2527C106.655 24.5323 106.594 24.8321 106.595 25.1348Z"
                fill="white"/>
            <path
                d="M39.361 8.73101C39.7623 8.70305 40.165 8.76191 40.5401 8.90335C40.9151 9.04478 41.2531 9.26526 41.5298 9.54889C41.8064 9.83251 42.0148 10.1722 42.1398 10.5435C42.2649 10.9148 42.3035 11.3083 42.2529 11.6959C42.2529 13.6021 41.1917 14.6979 39.361 14.6979H37.1411V8.73101H39.361ZM38.0957 13.854H39.2544C39.5412 13.8707 39.8281 13.825 40.0944 13.7204C40.3607 13.6158 40.5997 13.4548 40.7938 13.2493C40.9879 13.0437 41.1324 12.7987 41.2168 12.5321C41.3011 12.2655 41.3231 11.9839 41.2812 11.708C41.3201 11.4332 41.2958 11.1534 41.2102 10.8887C41.1246 10.6241 40.9797 10.3811 40.786 10.1771C40.5923 9.97322 40.3546 9.81341 40.0898 9.70917C39.825 9.60494 39.5397 9.55885 39.2544 9.57422H38.0957V13.854Z"
                fill="white"/>
            <path
                d="M43.3311 12.4443C43.302 12.1484 43.3369 11.8499 43.4335 11.5678C43.5302 11.2857 43.6865 11.0264 43.8924 10.8064C44.0984 10.5864 44.3494 10.4107 44.6294 10.2904C44.9094 10.1701 45.2122 10.108 45.5184 10.108C45.8246 10.108 46.1274 10.1701 46.4074 10.2904C46.6874 10.4107 46.9384 10.5864 47.1444 10.8064C47.3503 11.0264 47.5066 11.2857 47.6033 11.5678C47.6999 11.8499 47.7348 12.1484 47.7056 12.4443C47.7353 12.7406 47.7009 13.0396 47.6045 13.3221C47.5081 13.6046 47.3519 13.8644 47.1459 14.0848C46.9399 14.3052 46.6887 14.4814 46.4084 14.6019C46.1281 14.7225 45.8249 14.7847 45.5184 14.7847C45.2118 14.7847 44.9087 14.7225 44.6284 14.6019C44.3481 14.4814 44.0969 14.3052 43.8909 14.0848C43.6849 13.8644 43.5287 13.6046 43.4323 13.3221C43.3359 13.0396 43.3014 12.7406 43.3311 12.4443ZM46.7641 12.4443C46.7641 11.4683 46.3125 10.8975 45.5199 10.8975C44.7243 10.8975 44.2767 11.4683 44.2767 12.4444C44.2767 13.4282 44.7243 13.9946 45.5199 13.9946C46.3125 13.9946 46.7641 13.4243 46.7641 12.4443Z"
                fill="white"/>
            <path
                d="M53.5205 14.6978H52.5709L51.6124 11.3813H51.5399L50.5854 14.6978H49.6449L48.3665 10.1948H49.2949L50.1257 13.6308H50.1941L51.1477 10.1948H52.0258L52.9793 13.6308H53.0518L53.8786 10.1948H54.7939L53.5205 14.6978Z"
                fill="white"/>
            <path
                d="M55.8691 10.1948H56.7503V10.9101H56.8187C56.9347 10.6532 57.1304 10.4378 57.3785 10.294C57.6266 10.1502 57.9147 10.0852 58.2027 10.1079C58.4284 10.0914 58.655 10.1244 58.8657 10.2045C59.0765 10.2846 59.266 10.4097 59.4201 10.5706C59.5743 10.7314 59.6892 10.9239 59.7564 11.1337C59.8235 11.3435 59.8412 11.5653 59.8081 11.7827V14.6977H58.8928V12.0058C58.8928 11.2822 58.5689 10.9223 57.8919 10.9223C57.7387 10.9154 57.5858 10.9407 57.4436 10.9966C57.3014 11.0524 57.1733 11.1374 57.0681 11.2458C56.9629 11.3542 56.8831 11.4834 56.8341 11.6245C56.7852 11.7656 56.7682 11.9154 56.7845 12.0635V14.6977H55.8691L55.8691 10.1948Z"
                fill="white"/>
            <path d="M61.2666 8.43701H62.1819V14.6978H61.2666V8.43701Z" fill="white"/>
            <path
                d="M63.4544 12.4444C63.4253 12.1484 63.4602 11.8499 63.5568 11.5678C63.6535 11.2857 63.8099 11.0263 64.0158 10.8064C64.2218 10.5864 64.4728 10.4106 64.7529 10.2903C65.0329 10.17 65.3357 10.1079 65.6419 10.1079C65.9481 10.1079 66.2509 10.17 66.531 10.2903C66.811 10.4106 67.062 10.5864 67.268 10.8064C67.474 11.0263 67.6303 11.2857 67.727 11.5678C67.8236 11.8499 67.8585 12.1484 67.8294 12.4444C67.8591 12.7406 67.8246 13.0396 67.7282 13.3221C67.6317 13.6046 67.4755 13.8645 67.2695 14.0849C67.0635 14.3053 66.8122 14.4814 66.5319 14.6019C66.2516 14.7225 65.9485 14.7847 65.6419 14.7847C65.3353 14.7847 65.0322 14.7225 64.7519 14.6019C64.4716 14.4814 64.2204 14.3053 64.0143 14.0849C63.8083 13.8645 63.6521 13.6046 63.5557 13.3221C63.4592 13.0396 63.4247 12.7406 63.4544 12.4444ZM66.8874 12.4444C66.8874 11.4683 66.4358 10.8975 65.6432 10.8975C64.8475 10.8975 64.4 11.4683 64.4 12.4444C64.4 13.4283 64.8476 13.9947 65.6432 13.9947C66.4358 13.9947 66.8874 13.4244 66.8874 12.4444Z"
                fill="white"/>
            <path
                d="M68.793 13.4243C68.793 12.6138 69.4146 12.1465 70.518 12.0801L71.7743 12.0098V11.6211C71.7743 11.1455 71.4504 10.877 70.8248 10.877C70.3138 10.877 69.9598 11.0591 69.8582 11.3774H68.972C69.0656 10.604 69.8149 10.1079 70.8671 10.1079C72.0298 10.1079 72.6856 10.6699 72.6856 11.6211V14.6978H71.8045V14.0649H71.7321C71.5851 14.2919 71.3787 14.477 71.1339 14.6012C70.8892 14.7254 70.6149 14.7843 70.339 14.7719C70.1443 14.7916 69.9475 14.7714 69.7613 14.7127C69.5751 14.654 69.4037 14.5581 69.258 14.4311C69.1123 14.3042 68.9957 14.149 68.9156 13.9756C68.8355 13.8021 68.7937 13.6144 68.793 13.4243ZM71.7743 13.0395V12.6631L70.6417 12.7334C70.003 12.7749 69.7133 12.9858 69.7133 13.3828C69.7133 13.7881 70.0754 14.0239 70.5734 14.0239C70.7193 14.0382 70.8666 14.0239 71.0067 13.9819C71.1468 13.9398 71.2767 13.8707 71.3888 13.7789C71.5008 13.6871 71.5927 13.5743 71.659 13.4473C71.7252 13.3202 71.7644 13.1816 71.7743 13.0395Z"
                fill="white"/>
            <path
                d="M73.8887 12.4444C73.8887 11.0215 74.6421 10.1201 75.8139 10.1201C76.1037 10.1072 76.3914 10.1746 76.6433 10.3145C76.8951 10.4544 77.1008 10.661 77.2362 10.9101H77.3046V8.43701H78.2199V14.6978H77.3428V13.9863H77.2704C77.1245 14.2338 76.9117 14.4378 76.655 14.5763C76.3983 14.7148 76.1074 14.7825 75.8139 14.772C74.634 14.772 73.8887 13.8706 73.8887 12.4444ZM74.8342 12.4444C74.8342 13.3994 75.2979 13.9741 76.0734 13.9741C76.8449 13.9741 77.3217 13.3911 77.3217 12.4483C77.3217 11.5098 76.8399 10.9185 76.0734 10.9185C75.3029 10.9185 74.8342 11.4971 74.8342 12.4444Z"
                fill="white"/>
            <path
                d="M82.0069 12.4443C81.9778 12.1484 82.0126 11.8499 82.1093 11.5678C82.2059 11.2857 82.3623 11.0264 82.5682 10.8064C82.7741 10.5864 83.0252 10.4107 83.3052 10.2904C83.5852 10.1701 83.888 10.108 84.1942 10.108C84.5004 10.108 84.8032 10.1701 85.0832 10.2904C85.3632 10.4107 85.6142 10.5864 85.8201 10.8064C86.0261 11.0264 86.1824 11.2857 86.279 11.5678C86.3757 11.8499 86.4106 12.1484 86.3814 12.4443C86.4111 12.7406 86.3767 13.0396 86.2803 13.3221C86.1839 13.6046 86.0277 13.8644 85.8217 14.0848C85.6157 14.3052 85.3645 14.4814 85.0842 14.6019C84.8039 14.7225 84.5007 14.7847 84.1942 14.7847C83.8876 14.7847 83.5845 14.7225 83.3042 14.6019C83.0239 14.4814 82.7727 14.3052 82.5667 14.0848C82.3607 13.8644 82.2045 13.6046 82.1081 13.3221C82.0117 13.0396 81.9772 12.7406 82.0069 12.4443ZM85.4399 12.4443C85.4399 11.4683 84.9883 10.8975 84.1957 10.8975C83.4 10.8975 82.9525 11.4683 82.9525 12.4444C82.9525 13.4282 83.4001 13.9946 84.1957 13.9946C84.9883 13.9946 85.4399 13.4243 85.4399 12.4443Z"
                fill="white"/>
            <path
                d="M87.6096 10.1948H88.4908V10.9101H88.5592C88.6752 10.6532 88.8709 10.4378 89.119 10.294C89.3671 10.1502 89.6552 10.0852 89.9432 10.1079C90.1689 10.0914 90.3955 10.1244 90.6062 10.2045C90.817 10.2846 91.0064 10.4097 91.1606 10.5706C91.3148 10.7314 91.4297 10.9239 91.4969 11.1337C91.564 11.3435 91.5817 11.5653 91.5486 11.7827V14.6977H90.6332V12.0058C90.6332 11.2822 90.3094 10.9223 89.6324 10.9223C89.4792 10.9154 89.3262 10.9407 89.184 10.9966C89.0418 11.0524 88.9138 11.1374 88.8086 11.2458C88.7034 11.3542 88.6236 11.4834 88.5746 11.6245C88.5257 11.7656 88.5087 11.9154 88.525 12.0635V14.6977H87.6096V10.1948Z"
                fill="white"/>
            <path
                d="M96.7206 9.07373V10.2153H97.7255V10.9639H96.7206V13.2793C96.7206 13.751 96.9208 13.9575 97.3764 13.9575C97.4931 13.9572 97.6096 13.9503 97.7255 13.937V14.6772C97.5611 14.7058 97.3946 14.721 97.2276 14.7226C96.2096 14.7226 95.8043 14.375 95.8043 13.5068V10.9638H95.068V10.2153H95.8043V9.07373H96.7206Z"
                fill="white"/>
            <path
                d="M98.9758 8.43701H99.8831V10.9185H99.9555C100.077 10.6591 100.278 10.4425 100.531 10.2982C100.784 10.1539 101.077 10.0888 101.37 10.1118C101.594 10.1 101.819 10.1364 102.027 10.2184C102.235 10.3004 102.422 10.4261 102.575 10.5864C102.728 10.7468 102.842 10.9378 102.91 11.146C102.977 11.3541 102.997 11.5742 102.967 11.7905V14.6978H102.051V12.0098C102.051 11.2905 101.706 10.9263 101.059 10.9263C100.902 10.9137 100.743 10.9347 100.595 10.9878C100.447 11.0408 100.313 11.1247 100.202 11.2334C100.09 11.3421 100.005 11.4732 99.9514 11.6173C99.8978 11.7614 99.8772 11.9152 99.8912 12.0679V14.6977H98.9759L98.9758 8.43701Z"
                fill="white"/>
            <path
                d="M108.304 13.4819C108.18 13.8935 107.91 14.2495 107.543 14.4876C107.176 14.7258 106.734 14.8309 106.294 14.7847C105.989 14.7925 105.685 14.7357 105.405 14.6182C105.124 14.5006 104.873 14.3252 104.669 14.1041C104.465 13.8829 104.313 13.6214 104.224 13.3376C104.135 13.0537 104.11 12.7544 104.152 12.4605C104.111 12.1656 104.136 11.8656 104.225 11.581C104.314 11.2963 104.466 11.0335 104.668 10.8105C104.871 10.5874 105.121 10.4092 105.401 10.288C105.681 10.1668 105.984 10.1054 106.29 10.1079C107.581 10.1079 108.359 10.9639 108.359 12.3779V12.688H105.084V12.7378C105.07 12.9031 105.091 13.0694 105.147 13.2261C105.203 13.3829 105.292 13.5266 105.408 13.6481C105.524 13.7695 105.666 13.866 105.823 13.9314C105.98 13.9968 106.149 14.0297 106.32 14.0278C106.539 14.0533 106.76 14.0151 106.957 13.9178C107.153 13.8206 107.316 13.6689 107.423 13.4819L108.304 13.4819ZM105.084 12.0308H107.427C107.439 11.8796 107.417 11.7278 107.365 11.5851C107.312 11.4424 107.23 11.3119 107.122 11.2021C107.015 11.0922 106.885 11.0054 106.741 10.9472C106.596 10.8891 106.441 10.8608 106.285 10.8643C106.127 10.8623 105.97 10.8912 105.823 10.9491C105.677 11.0071 105.543 11.0929 105.432 11.2017C105.32 11.3104 105.231 11.4397 105.172 11.5821C105.112 11.7245 105.082 11.8771 105.084 12.0308Z"
                fill="white"/>
        </g>
    </g>
    <defs>
        <clipPath id="clip0_5333_3329">
            <rect width="123.6" height="40" fill="white" transform="translate(0.400024)"/>
        </clipPath>
        <clipPath id="clip1_5333_3329">
            <rect width="123.254" height="40" fill="white" transform="translate(0.400024)"/>
        </clipPath>
    </defs>
</svg>
