<svg viewBox="0 0 125 40" fill="none" xmlns="http://www.w3.org/2000/svg">
    <g clip-path="url(#clip0_5333_3314)">
        <g clip-path="url(#clip1_5333_3314)">
            <path
                d="M119.822 40H5.37783C2.81427 40 0.800049 37.8 0.800049 35V5C0.800049 2.2 2.81427 0 5.37783 0H119.822C122.386 0 124.4 2.2 124.4 5V35C124.4 37.8 122.386 40 119.822 40Z"
                fill="black"/>
            <path
                d="M119.822 0.8C121.928 0.8 123.668 2.7 123.668 5V35C123.668 37.3 121.928 39.2 119.822 39.2H5.37783C3.27205 39.2 1.53249 37.3 1.53249 35V5C1.53249 2.7 3.27205 0.8 5.37783 0.8H119.822ZM119.822 0H5.37783C2.81427 0 0.800049 2.3 0.800049 5V35C0.800049 37.8 2.81427 40 5.37783 40H119.822C122.386 40 124.4 37.8 124.4 35V5C124.4 2.3 122.386 0 119.822 0Z"
                fill="#A6A6A6"/>
            <path
                d="M43.0894 8.81C43.0239 8.60963 42.9376 8.43008 42.8305 8.27137C42.7253 8.11067 42.5994 7.97379 42.4526 7.8607C42.3077 7.74762 42.1431 7.66132 41.9586 7.6018C41.7741 7.54229 41.5717 7.51253 41.3515 7.51253C40.9904 7.51253 40.6621 7.60577 40.3665 7.79226C40.0709 7.97875 39.8358 8.25352 39.6612 8.61657C39.4866 8.97962 39.3993 9.42501 39.3993 9.95273C39.3993 10.4804 39.4876 10.9258 39.6642 11.2889C39.8407 11.6519 40.0798 11.9267 40.3814 12.1132C40.6829 12.2997 41.0222 12.3929 41.3991 12.3929C41.7483 12.3929 42.0558 12.3185 42.3216 12.1697C42.5894 12.019 42.7978 11.8067 42.9465 11.5329C43.0973 11.2571 43.1727 10.9328 43.1727 10.5598L43.3989 10.6074H41.5657V9.95273H43.8869V10.6074C43.8869 11.1093 43.7798 11.5458 43.5655 11.9168C43.3532 12.2878 43.0596 12.5754 42.6847 12.7798C42.3117 12.9821 41.8832 13.0833 41.3991 13.0833C40.8595 13.0833 40.3853 12.9564 39.9766 12.7024C39.5699 12.4485 39.2525 12.0874 39.0244 11.6192C38.7982 11.151 38.6851 10.5955 38.6851 9.95273C38.6851 9.47064 38.7496 9.03716 38.8786 8.65228C39.0095 8.26542 39.194 7.93609 39.4321 7.6643C39.6701 7.3925 39.9518 7.18419 40.2772 7.03937C40.6026 6.89454 40.9607 6.82213 41.3515 6.82213C41.6729 6.82213 41.9724 6.87074 42.2502 6.96795C42.5299 7.06317 42.7789 7.19907 42.9971 7.37564C43.2173 7.55022 43.4009 7.75952 43.5477 8.00354C43.6945 8.24558 43.7957 8.5144 43.8512 8.81H43.0894ZM45.1509 13V6.90545H48.8291V7.56014H45.8889V9.61943H48.6386V10.2741H45.8889V12.3453H48.8767V13H45.1509ZM49.826 7.56014V6.90545H54.3969V7.56014H52.4804V13H51.7424V7.56014H49.826ZM58.6308 6.90545V13H57.8928V6.90545H58.6308ZM59.7772 7.56014V6.90545H64.3481V7.56014H62.4317V13H61.6937V7.56014H59.7772ZM72.9863 9.95273C72.9863 10.5955 72.8702 11.151 72.6381 11.6192C72.406 12.0874 72.0876 12.4485 71.6829 12.7024C71.2781 12.9564 70.8159 13.0833 70.2961 13.0833C69.7763 13.0833 69.3141 12.9564 68.9094 12.7024C68.5047 12.4485 68.1862 12.0874 67.9541 11.6192C67.722 11.151 67.6059 10.5955 67.6059 9.95273C67.6059 9.30994 67.722 8.75445 67.9541 8.28625C68.1862 7.81805 68.5047 7.45698 68.9094 7.20304C69.3141 6.9491 69.7763 6.82213 70.2961 6.82213C70.8159 6.82213 71.2781 6.9491 71.6829 7.20304C72.0876 7.45698 72.406 7.81805 72.6381 8.28625C72.8702 8.75445 72.9863 9.30994 72.9863 9.95273ZM72.2721 9.95273C72.2721 9.42501 72.1838 8.97962 72.0072 8.61657C71.8326 8.25352 71.5956 7.97875 71.296 7.79226C70.9984 7.60577 70.6651 7.51253 70.2961 7.51253C69.9271 7.51253 69.5928 7.60577 69.2933 7.79226C68.9957 7.97875 68.7586 8.25352 68.582 8.61657C68.4074 8.97962 68.3201 9.42501 68.3201 9.95273C68.3201 10.4804 68.4074 10.9258 68.582 11.2889C68.7586 11.6519 68.9957 11.9267 69.2933 12.1132C69.5928 12.2997 69.9271 12.3929 70.2961 12.3929C70.6651 12.3929 70.9984 12.2997 71.296 12.1132C71.5956 11.9267 71.8326 11.6519 72.0072 11.2889C72.1838 10.9258 72.2721 10.4804 72.2721 9.95273ZM79.06 6.90545V13H78.3458L75.0247 8.21483H74.9652V13H74.2272V6.90545H74.9414L78.2744 11.7025H78.3339V6.90545H79.06Z"
                fill="white"/>
            <path
                d="M43.0894 8.81L42.9943 8.84106L43.0169 8.91H43.0894V8.81ZM42.8305 8.27137L42.7468 8.32613L42.7476 8.32732L42.8305 8.27137ZM42.4526 7.8607L42.391 7.93952L42.3915 7.93993L42.4526 7.8607ZM41.9586 7.6018L41.9893 7.50663H41.9893L41.9586 7.6018ZM39.6612 8.61657L39.7513 8.65991L39.6612 8.61657ZM39.6642 11.2889L39.5743 11.3326L39.6642 11.2889ZM40.3814 12.1132L40.3288 12.1982L40.3814 12.1132ZM42.3216 12.1697L42.3705 12.257L42.3707 12.2569L42.3216 12.1697ZM42.9465 11.5329L42.8588 11.4849L42.8587 11.4852L42.9465 11.5329ZM43.1727 10.5598L43.1933 10.4619L43.0727 10.4366V10.5598H43.1727ZM43.3989 10.6074V10.7074H44.3593L43.4195 10.5096L43.3989 10.6074ZM41.5657 10.6074H41.4657V10.7074H41.5657V10.6074ZM41.5657 9.95273V9.85273H41.4657V9.95273H41.5657ZM43.8869 9.95273H43.9869V9.85273H43.8869V9.95273ZM43.5655 11.9168L43.4789 11.8668L43.4787 11.8671L43.5655 11.9168ZM42.6847 12.7798L42.7324 12.8677L42.7325 12.8676L42.6847 12.7798ZM39.9766 12.7024L39.9237 12.7872L39.9239 12.7874L39.9766 12.7024ZM39.0244 11.6192L38.9343 11.6627L38.9345 11.663L39.0244 11.6192ZM38.8786 8.65228L38.7838 8.62022L38.7837 8.62051L38.8786 8.65228ZM39.4321 7.6643L39.5073 7.73019L39.4321 7.6643ZM40.2772 7.03937L40.2365 6.94801L40.2772 7.03937ZM42.2502 6.96795L42.2172 7.06234L42.218 7.06261L42.2502 6.96795ZM42.9971 7.37564L42.9342 7.45338L42.935 7.454L42.9971 7.37564ZM43.5477 8.00354L43.462 8.0551L43.4622 8.0554L43.5477 8.00354ZM43.8512 8.81V8.91H43.9717L43.9495 8.79153L43.8512 8.81ZM43.1844 8.77894C43.1164 8.57063 43.0262 8.38256 42.9134 8.21542L42.7476 8.32732C42.849 8.47761 42.9315 8.64862 42.9943 8.84106L43.1844 8.77894ZM42.9142 8.21662C42.8031 8.0469 42.6696 7.90164 42.5136 7.78148L42.3915 7.93993C42.5292 8.04593 42.6476 8.17445 42.7468 8.32612L42.9142 8.21662ZM42.5141 7.78188C42.3595 7.66119 42.1843 7.56955 41.9893 7.50663L41.9279 7.69697C42.1018 7.75309 42.2559 7.83405 42.391 7.93952L42.5141 7.78188ZM41.9893 7.50663C41.7936 7.44351 41.5807 7.41253 41.3515 7.41253V7.61253C41.5627 7.61253 41.7545 7.64106 41.9279 7.69697L41.9893 7.50663ZM41.3515 7.41253C40.9722 7.41253 40.6252 7.51077 40.3131 7.70768L40.4198 7.87683C40.6989 7.70077 41.0086 7.61253 41.3515 7.61253V7.41253ZM40.3131 7.70768C39.9993 7.90564 39.7525 8.19589 39.5711 8.57323L39.7513 8.65991C39.919 8.31114 40.1424 8.05185 40.4198 7.87683L40.3131 7.70768ZM39.5711 8.57323C39.3883 8.95332 39.2993 9.41447 39.2993 9.95273H39.4993C39.4993 9.43555 39.5849 9.00592 39.7513 8.65991L39.5711 8.57323ZM39.2993 9.95273C39.2993 10.4911 39.3893 10.9524 39.5743 11.3326L39.7541 11.2451C39.5859 10.8992 39.4993 10.4698 39.4993 9.95273H39.2993ZM39.5743 11.3326C39.7579 11.7103 40.009 12.0005 40.3288 12.1982L40.434 12.0281C40.1507 11.8529 39.9236 11.5936 39.7541 11.2451L39.5743 11.3326ZM40.3288 12.1982C40.6471 12.3951 41.0048 12.4929 41.3991 12.4929V12.2929C41.0395 12.2929 40.7187 12.2042 40.434 12.0281L40.3288 12.1982ZM41.3991 12.4929C41.7628 12.4929 42.0876 12.4153 42.3705 12.257L42.2728 12.0825C42.0239 12.2218 41.7337 12.2929 41.3991 12.2929V12.4929ZM42.3707 12.2569C42.6551 12.0967 42.8768 11.8707 43.0344 11.5807L42.8587 11.4852C42.7187 11.7427 42.5238 11.9412 42.2726 12.0826L42.3707 12.2569ZM43.0343 11.5809C43.1945 11.2879 43.2727 10.9464 43.2727 10.5598H43.0727C43.0727 10.9191 43.0002 11.2264 42.8588 11.4849L43.0343 11.5809ZM43.1521 10.6577L43.3783 10.7053L43.4195 10.5096L43.1933 10.4619L43.1521 10.6577ZM43.3989 10.5074H41.5657V10.7074H43.3989V10.5074ZM41.6657 10.6074V9.95273H41.4657V10.6074H41.6657ZM41.5657 10.0527H43.8869V9.85273H41.5657V10.0527ZM43.7869 9.95273V10.6074H43.9869V9.95273H43.7869ZM43.7869 10.6074C43.7869 11.0948 43.683 11.5134 43.4789 11.8668L43.6521 11.9668C43.8766 11.5782 43.9869 11.1239 43.9869 10.6074H43.7869ZM43.4787 11.8671C43.2756 12.2221 42.9955 12.4965 42.6368 12.692L42.7325 12.8676C43.1238 12.6544 43.4309 12.3535 43.6523 11.9665L43.4787 11.8671ZM42.637 12.6919C42.2806 12.8852 41.8689 12.9833 41.3991 12.9833V13.1833C41.8975 13.1833 42.3428 13.079 42.7324 12.8677L42.637 12.6919ZM41.3991 12.9833C40.8758 12.9833 40.4204 12.8604 40.0294 12.6175L39.9239 12.7874C40.3503 13.0523 40.8432 13.1833 41.3991 13.1833V12.9833ZM40.0296 12.6176C39.6402 12.3744 39.3349 12.0282 39.1143 11.5754L38.9345 11.663C39.1701 12.1466 39.4997 12.5225 39.9237 12.7872L40.0296 12.6176ZM39.1144 11.5757C38.8962 11.1239 38.7851 10.5839 38.7851 9.95273H38.5851C38.5851 10.6071 38.7002 11.1781 38.9343 11.6627L39.1144 11.5757ZM38.7851 9.95273C38.7851 9.47947 38.8484 9.05697 38.9734 8.68405L38.7837 8.62051C38.6508 9.01734 38.5851 9.46181 38.5851 9.95273H38.7851ZM38.9733 8.68434C39.1005 8.30831 39.2789 7.99089 39.5073 7.73019L39.3568 7.59841C39.1091 7.8813 38.9184 8.22253 38.7838 8.62022L38.9733 8.68434ZM39.5073 7.73019C39.736 7.46912 40.0059 7.26958 40.3179 7.13073L40.2365 6.94801C39.8978 7.09881 39.6043 7.31589 39.3568 7.59841L39.5073 7.73019ZM40.3179 7.13073C40.6292 6.99213 40.9733 6.92213 41.3515 6.92213V6.72213C40.948 6.72213 40.5759 6.79695 40.2365 6.94801L40.3179 7.13073ZM41.3515 6.92213C41.6627 6.92213 41.951 6.96917 42.2172 7.06233L42.2832 6.87356C41.9939 6.77231 41.6831 6.72213 41.3515 6.72213V6.92213ZM42.218 7.06261C42.4872 7.15425 42.7256 7.2846 42.9342 7.45338L43.06 7.2979C42.8322 7.11354 42.5727 6.9721 42.2824 6.87328L42.218 7.06261ZM42.935 7.454C43.1457 7.62103 43.3213 7.82121 43.462 8.0551L43.6334 7.95199C43.4804 7.69783 43.289 7.47941 43.0593 7.29728L42.935 7.454ZM43.4622 8.0554C43.6024 8.28654 43.6995 8.54393 43.7529 8.82847L43.9495 8.79153C43.8919 8.48487 43.7866 8.20462 43.6332 7.95168L43.4622 8.0554ZM43.8512 8.71H43.0894V8.91H43.8512V8.71ZM45.1509 13H45.0509V13.1H45.1509V13ZM45.1509 6.90545V6.80545H45.0509V6.90545H45.1509ZM48.8291 6.90545H48.9291V6.80545H48.8291V6.90545ZM48.8291 7.56014V7.66014H48.9291V7.56014H48.8291ZM45.8889 7.56014V7.46014H45.7889V7.56014H45.8889ZM45.8889 9.61943H45.7889V9.71943H45.8889V9.61943ZM48.6386 9.61943H48.7386V9.51943H48.6386V9.61943ZM48.6386 10.2741V10.3741H48.7386V10.2741H48.6386ZM45.8889 10.2741V10.1741H45.7889V10.2741H45.8889ZM45.8889 12.3453H45.7889V12.4453H45.8889V12.3453ZM48.8767 12.3453H48.9767V12.2453H48.8767V12.3453ZM48.8767 13V13.1H48.9767V13H48.8767ZM45.2509 13V6.90545H45.0509V13H45.2509ZM45.1509 7.00545H48.8291V6.80545H45.1509V7.00545ZM48.7291 6.90545V7.56014H48.9291V6.90545H48.7291ZM48.8291 7.46014H45.8889V7.66014H48.8291V7.46014ZM45.7889 7.56014V9.61943H45.9889V7.56014H45.7889ZM45.8889 9.71943H48.6386V9.51943H45.8889V9.71943ZM48.5386 9.61943V10.2741H48.7386V9.61943H48.5386ZM48.6386 10.1741H45.8889V10.3741H48.6386V10.1741ZM45.7889 10.2741V12.3453H45.9889V10.2741H45.7889ZM45.8889 12.4453H48.8767V12.2453H45.8889V12.4453ZM48.7767 12.3453V13H48.9767V12.3453H48.7767ZM48.8767 12.9H45.1509V13.1H48.8767V12.9ZM49.826 7.56014H49.726V7.66014H49.826V7.56014ZM49.826 6.90545V6.80545H49.726V6.90545H49.826ZM54.3969 6.90545H54.4969V6.80545H54.3969V6.90545ZM54.3969 7.56014V7.66014H54.4969V7.56014H54.3969ZM52.4804 7.56014V7.46014H52.3804V7.56014H52.4804ZM52.4804 13V13.1H52.5804V13H52.4804ZM51.7424 13H51.6424V13.1H51.7424V13ZM51.7424 7.56014H51.8424V7.46014H51.7424V7.56014ZM49.926 7.56014V6.90545H49.726V7.56014H49.926ZM49.826 7.00545H54.3969V6.80545H49.826V7.00545ZM54.2969 6.90545V7.56014H54.4969V6.90545H54.2969ZM54.3969 7.46014H52.4804V7.66014H54.3969V7.46014ZM52.3804 7.56014V13H52.5804V7.56014H52.3804ZM52.4804 12.9H51.7424V13.1H52.4804V12.9ZM51.8424 13V7.56014H51.6424V13H51.8424ZM51.7424 7.46014H49.826V7.66014H51.7424V7.46014ZM58.6308 6.90545H58.7308V6.80545H58.6308V6.90545ZM58.6308 13V13.1H58.7308V13H58.6308ZM57.8928 13H57.7928V13.1H57.8928V13ZM57.8928 6.90545V6.80545H57.7928V6.90545H57.8928ZM58.5308 6.90545V13H58.7308V6.90545H58.5308ZM58.6308 12.9H57.8928V13.1H58.6308V12.9ZM57.9928 13V6.90545H57.7928V13H57.9928ZM57.8928 7.00545H58.6308V6.80545H57.8928V7.00545ZM59.7772 7.56014H59.6772V7.66014H59.7772V7.56014ZM59.7772 6.90545V6.80545H59.6772V6.90545H59.7772ZM64.3481 6.90545H64.4481V6.80545H64.3481V6.90545ZM64.3481 7.56014V7.66014H64.4481V7.56014H64.3481ZM62.4317 7.56014V7.46014H62.3317V7.56014H62.4317ZM62.4317 13V13.1H62.5317V13H62.4317ZM61.6937 13H61.5937V13.1H61.6937V13ZM61.6937 7.56014H61.7937V7.46014H61.6937V7.56014ZM59.8772 7.56014V6.90545H59.6772V7.56014H59.8772ZM59.7772 7.00545H64.3481V6.80545H59.7772V7.00545ZM64.2481 6.90545V7.56014H64.4481V6.90545H64.2481ZM64.3481 7.46014H62.4317V7.66014H64.3481V7.46014ZM62.3317 7.56014V13H62.5317V7.56014H62.3317ZM62.4317 12.9H61.6937V13.1H62.4317V12.9ZM61.7937 13V7.56014H61.5937V13H61.7937ZM61.6937 7.46014H59.7772V7.66014H61.6937V7.46014ZM72.6381 11.6192L72.5485 11.5748L72.6381 11.6192ZM71.6829 12.7024L71.736 12.7871L71.6829 12.7024ZM68.9094 12.7024L68.8562 12.7871L68.9094 12.7024ZM67.9541 11.6192L68.0437 11.5748L67.9541 11.6192ZM67.9541 8.28625L67.8645 8.24183L67.9541 8.28625ZM71.6829 7.20304L71.736 7.11833L71.6829 7.20304ZM72.6381 8.28625L72.5485 8.33067L72.6381 8.28625ZM72.0072 8.61657L71.9171 8.65991L71.9173 8.66031L72.0072 8.61657ZM71.296 7.79226L71.2429 7.877L71.2432 7.87715L71.296 7.79226ZM69.2933 7.79226L69.2404 7.70736L69.2402 7.70752L69.2933 7.79226ZM68.582 8.61657L68.4921 8.57283L68.4919 8.57323L68.582 8.61657ZM68.582 11.2889L68.4919 11.3322L68.4921 11.3326L68.582 11.2889ZM69.2933 12.1132L69.2402 12.1979L69.2404 12.1981L69.2933 12.1132ZM71.296 12.1132L71.2432 12.0283L71.2429 12.0285L71.296 12.1132ZM72.0072 11.2889L71.9173 11.2451L71.9171 11.2455L72.0072 11.2889ZM72.8863 9.95273C72.8863 10.5836 72.7724 11.1232 72.5485 11.5748L72.7277 11.6636C72.9681 11.1788 73.0863 10.6074 73.0863 9.95273H72.8863ZM72.5485 11.5748C72.3238 12.0281 72.0173 12.3745 71.6297 12.6177L71.736 12.7871C72.1578 12.5225 72.4882 12.1468 72.7277 11.6636L72.5485 11.5748ZM71.6297 12.6177C71.2423 12.8608 70.7988 12.9833 70.2961 12.9833V13.1833C70.833 13.1833 71.314 13.0519 71.736 12.7871L71.6297 12.6177ZM70.2961 12.9833C69.7934 12.9833 69.3499 12.8608 68.9625 12.6177L68.8562 12.7871C69.2783 13.0519 69.7592 13.1833 70.2961 13.1833V12.9833ZM68.9625 12.6177C68.5749 12.3745 68.2684 12.0281 68.0437 11.5748L67.8645 11.6636C68.104 12.1468 68.4344 12.5225 68.8562 12.7871L68.9625 12.6177ZM68.0437 11.5748C67.8198 11.1232 67.7059 10.5836 67.7059 9.95273H67.5059C67.5059 10.6074 67.6242 11.1788 67.8645 11.6636L68.0437 11.5748ZM67.7059 9.95273C67.7059 9.32187 67.8198 8.78225 68.0437 8.33067L67.8645 8.24183C67.6242 8.72665 67.5059 9.29801 67.5059 9.95273H67.7059ZM68.0437 8.33067C68.2684 7.8774 68.5749 7.53097 68.9625 7.28775L68.8562 7.11833C68.4344 7.38299 68.104 7.7587 67.8645 8.24183L68.0437 8.33067ZM68.9625 7.28775C69.3499 7.04467 69.7934 6.92213 70.2961 6.92213V6.72213C69.7592 6.72213 69.2783 6.85353 68.8562 7.11833L68.9625 7.28775ZM70.2961 6.92213C70.7988 6.92213 71.2423 7.04467 71.6297 7.28775L71.736 7.11833C71.314 6.85353 70.833 6.72213 70.2961 6.72213V6.92213ZM71.6297 7.28775C72.0173 7.53097 72.3238 7.8774 72.5485 8.33067L72.7277 8.24183C72.4882 7.7587 72.1578 7.38299 71.736 7.11833L71.6297 7.28775ZM72.5485 8.33067C72.7724 8.78225 72.8863 9.32187 72.8863 9.95273H73.0863C73.0863 9.29801 72.9681 8.72665 72.7277 8.24183L72.5485 8.33067ZM72.3721 9.95273C72.3721 9.41433 72.2821 8.95303 72.0972 8.57283L71.9173 8.66031C72.0855 9.00621 72.1721 9.43569 72.1721 9.95273H72.3721ZM72.0974 8.57323C71.9157 8.19555 71.6667 7.90525 71.3489 7.70736L71.2432 7.87715C71.5244 8.05224 71.7496 8.31148 71.9171 8.65991L72.0974 8.57323ZM71.3491 7.70752C71.0348 7.51054 70.6829 7.41253 70.2961 7.41253V7.61253C70.6473 7.61253 70.9621 7.701 71.2429 7.87699L71.3491 7.70752ZM70.2961 7.41253C69.9093 7.41253 69.5566 7.51054 69.2404 7.70736L69.3461 7.87715C69.6291 7.701 69.9449 7.61253 70.2961 7.61253V7.41253ZM69.2402 7.70752C68.9244 7.90537 68.6756 8.19551 68.4921 8.57283L68.672 8.66031C68.8416 8.31152 69.0669 8.05212 69.3464 7.87699L69.2402 7.70752ZM68.4919 8.57323C68.3091 8.95332 68.2201 9.41447 68.2201 9.95273H68.4201C68.4201 9.43555 68.5058 9.00592 68.6721 8.65991L68.4919 8.57323ZM68.2201 9.95273C68.2201 10.491 68.3091 10.9521 68.4919 11.3322L68.6721 11.2455C68.5058 10.8995 68.4201 10.4699 68.4201 9.95273H68.2201ZM68.4921 11.3326C68.6756 11.7099 68.9244 12.0001 69.2402 12.1979L69.3464 12.0285C69.0669 11.8533 68.8416 11.5939 68.672 11.2451L68.4921 11.3326ZM69.2404 12.1981C69.5566 12.3949 69.9093 12.4929 70.2961 12.4929V12.2929C69.9449 12.2929 69.6291 12.2045 69.3461 12.0283L69.2404 12.1981ZM70.2961 12.4929C70.6829 12.4929 71.0348 12.3949 71.3491 12.1979L71.2429 12.0285C70.9621 12.2045 70.6473 12.2929 70.2961 12.2929V12.4929ZM71.3489 12.1981C71.6667 12.0002 71.9157 11.7099 72.0974 11.3322L71.9171 11.2455C71.7496 11.594 71.5244 11.8532 71.2432 12.0283L71.3489 12.1981ZM72.0972 11.3326C72.2821 10.9524 72.3721 10.4911 72.3721 9.95273H72.1721C72.1721 10.4698 72.0855 10.8992 71.9173 11.2451L72.0972 11.3326ZM79.06 6.90545H79.16V6.80545H79.06V6.90545ZM79.06 13V13.1H79.16V13H79.06ZM78.3458 13L78.2636 13.057L78.2935 13.1H78.3458V13ZM75.0247 8.21483L75.1069 8.15781L75.0771 8.11483H75.0247V8.21483ZM74.9652 8.21483V8.11483H74.8652V8.21483H74.9652ZM74.9652 13V13.1H75.0652V13H74.9652ZM74.2272 13H74.1272V13.1H74.2272V13ZM74.2272 6.90545V6.80545H74.1272V6.90545H74.2272ZM74.9414 6.90545L75.0235 6.8484L74.9937 6.80545H74.9414V6.90545ZM78.2744 11.7025L78.1923 11.7596L78.2221 11.8025H78.2744V11.7025ZM78.3339 11.7025V11.8025H78.4339V11.7025H78.3339ZM78.3339 6.90545V6.80545H78.2339V6.90545H78.3339ZM78.96 6.90545V13H79.16V6.90545H78.96ZM79.06 12.9H78.3458V13.1H79.06V12.9ZM78.4279 12.943L75.1069 8.15781L74.9426 8.27185L78.2636 13.057L78.4279 12.943ZM75.0247 8.11483H74.9652V8.31483H75.0247V8.11483ZM74.8652 8.21483V13H75.0652V8.21483H74.8652ZM74.9652 12.9H74.2272V13.1H74.9652V12.9ZM74.3272 13V6.90545H74.1272V13H74.3272ZM74.2272 7.00545H74.9414V6.80545H74.2272V7.00545ZM74.8593 6.96251L78.1923 11.7596L78.3565 11.6455L75.0235 6.8484L74.8593 6.96251ZM78.2744 11.8025H78.3339V11.6025H78.2744V11.8025ZM78.4339 11.7025V6.90545H78.2339V11.7025H78.4339ZM78.3339 7.00545H79.06V6.80545H78.3339V7.00545Z"
                fill="white"/>
            <path
                d="M63.1494 21.8C60.9521 21.8 59.2126 23.6 59.2126 26.1C59.2126 28.5 60.9521 30.4 63.1494 30.4C65.3468 30.4 67.0863 28.6 67.0863 26.1C67.0863 23.5 65.3468 21.8 63.1494 21.8ZM63.1494 28.6C61.9592 28.6 60.9521 27.5 60.9521 26C60.9521 24.5 61.9592 23.4 63.1494 23.4C64.3397 23.4 65.3468 24.4 65.3468 26C65.3468 27.5 64.3397 28.6 63.1494 28.6ZM54.6348 21.8C52.4374 21.8 50.6979 23.6 50.6979 26.1C50.6979 28.5 52.4374 30.4 54.6348 30.4C56.8321 30.4 58.5717 28.6 58.5717 26.1C58.5717 23.5 56.8321 21.8 54.6348 21.8ZM54.6348 28.6C53.4446 28.6 52.4374 27.5 52.4374 26C52.4374 24.5 53.4446 23.4 54.6348 23.4C55.825 23.4 56.8321 24.4 56.8321 26C56.8321 27.5 55.825 28.6 54.6348 28.6ZM44.4721 23.1V24.9H48.409C48.3174 25.9 47.9512 26.7 47.4934 27.2C46.9441 27.8 46.0286 28.5 44.4721 28.5C42.0001 28.5 40.169 26.4 40.169 23.7C40.169 21 42.0917 18.9 44.4721 18.9C45.7539 18.9 46.761 19.5 47.4934 20.2L48.6837 18.9C47.6766 17.9 46.3948 17.1 44.5637 17.1C41.2677 17.1 38.4294 20.1 38.4294 23.7C38.4294 27.3 41.2677 30.3 44.5637 30.3C46.3948 30.3 47.6766 29.7 48.7752 28.4C49.8739 27.2 50.2401 25.5 50.2401 24.2C50.2401 23.8 50.2401 23.4 50.1486 23.1H44.4721ZM86.0383 24.5C85.6721 23.5 84.7566 21.8 82.7423 21.8C80.7281 21.8 79.0801 23.5 79.0801 26.1C79.0801 28.5 80.7281 30.4 82.9254 30.4C84.665 30.4 85.7637 29.2 86.1299 28.5L84.8481 27.5C84.3903 28.2 83.841 28.7 82.9254 28.7C82.0099 28.7 81.4606 28.3 81.0028 27.4L86.2215 25L86.0383 24.5ZM80.7281 25.9C80.7281 24.3 81.9183 23.4 82.7423 23.4C83.3832 23.4 84.0241 23.8 84.2072 24.3L80.7281 25.9ZM76.425 30H78.1646V17.5H76.425V30ZM73.6783 22.7C73.2206 22.2 72.4881 21.7 71.5726 21.7C69.6499 21.7 67.8188 23.6 67.8188 26C67.8188 28.4 69.5583 30.2 71.5726 30.2C72.4881 30.2 73.2206 29.7 73.5868 29.2H73.6783V29.8C73.6783 31.4 72.8543 32.3 71.5726 32.3C70.5654 32.3 69.833 31.5 69.6499 30.8L68.185 31.5C68.6428 32.6 69.7414 34 71.6641 34C73.6783 34 75.3263 32.7 75.3263 29.6V22H73.6783V22.7ZM71.6641 28.6C70.4739 28.6 69.4668 27.5 69.4668 26C69.4668 24.5 70.4739 23.4 71.6641 23.4C72.8543 23.4 73.7699 24.5 73.7699 26C73.7699 27.5 72.8543 28.6 71.6641 28.6ZM94.0037 17.5H89.8837V30H91.6232V25.3H94.0037C95.9263 25.3 97.7575 23.8 97.7575 21.4C97.7575 19 95.9263 17.5 94.0037 17.5ZM94.0952 23.5H91.6232V19.2H94.0952C95.377 19.2 96.1094 20.4 96.1094 21.3C96.0179 22.4 95.2854 23.5 94.0952 23.5ZM104.624 21.7C103.342 21.7 102.061 22.3 101.603 23.6L103.159 24.3C103.525 23.6 104.075 23.4 104.716 23.4C105.631 23.4 106.455 24 106.547 25V25.1C106.272 24.9 105.54 24.6 104.807 24.6C103.159 24.6 101.511 25.6 101.511 27.4C101.511 29.1 102.885 30.2 104.349 30.2C105.54 30.2 106.089 29.6 106.547 29H106.638V30H108.286V25.2C108.103 23 106.547 21.7 104.624 21.7ZM104.441 28.6C103.892 28.6 103.068 28.3 103.068 27.5C103.068 26.5 104.075 26.2 104.899 26.2C105.631 26.2 105.997 26.4 106.455 26.6C106.272 27.8 105.357 28.6 104.441 28.6ZM114.054 22L112.132 27.4H112.04L110.026 22H108.195L111.216 29.6L109.477 33.8H111.216L115.885 22H114.054ZM98.673 30H100.413V17.5H98.673V30Z"
                fill="white"/>
            <path
                d="M19.752 19.4L10.0471 30.7C10.3218 31.9 11.3289 32.8 12.6107 32.8C13.0685 32.8 13.5262 32.7 13.984 32.4L24.9707 25.5L19.752 19.4Z"
                fill="#EA4335"/>
            <path
                d="M29.64 17.5L24.8791 14.5L19.5688 19.7L24.8791 25.5L29.5484 22.5C30.3724 22 30.9217 21.1 30.9217 20C31.0133 18.9 30.464 18 29.64 17.5Z"
                fill="#FBBC04"/>
            <path
                d="M10.0471 9.29999C9.95557 9.49999 9.95557 9.79999 9.95557 9.99999V30C9.95557 30.3 9.95557 30.5 10.0471 30.7L20.1182 19.7L10.0471 9.29999Z"
                fill="#4285F4"/>
            <path
                d="M19.8436 20L24.8791 14.5L13.8925 7.60001C13.5262 7.30001 13.0685 7.20001 12.5191 7.20001C11.3289 7.20001 10.2302 8.10001 9.95557 9.30001L19.8436 20Z"
                fill="#34A853"/>
        </g>
    </g>
    <defs>
        <clipPath id="clip0_5333_3314">
            <rect width="123.6" height="40" fill="white" transform="translate(0.800049)"/>
        </clipPath>
        <clipPath id="clip1_5333_3314">
            <rect width="123.6" height="40" fill="white" transform="translate(0.800049)"/>
        </clipPath>
    </defs>
</svg>
