<svg viewBox="0 0 32 32" xmlns="http://www.w3.org/2000/svg">
    <path fill-rule="evenodd" clip-rule="evenodd"
          d="M24.9737 12.8155L7.02632 12.8155L7.02631 25.9945L24.9737 25.9945L24.9737 12.8155ZM7.02632 10.81C5.90721 10.81 5 11.7079 5 12.8155V25.9945C5 27.1021 5.90721 28 7.02631 28H24.9737C26.0928 28 27 27.1021 27 25.9945V12.8155C27 11.7079 26.0928 10.81 24.9737 10.81H7.02632Z"/>
    <path fill-rule="evenodd" clip-rule="evenodd"
          d="M15.4215 26.8541L15.4215 11.9561H17.4478L17.4478 26.8541H15.4215Z"/>
    <path fill-rule="evenodd" clip-rule="evenodd"
          d="M11.2469 6.35977C10.5123 6.92774 10.3821 7.97749 10.956 8.70446C11.1693 8.97465 11.4472 9.16069 11.7511 9.26066L11.7814 9.27064L14.3614 10.3023L13.9426 7.35327C13.9417 7.34896 13.9407 7.34464 13.9398 7.3403C13.8896 7.09653 13.7833 6.85966 13.6159 6.64766C13.042 5.92069 11.9814 5.7918 11.2469 6.35977ZM9.35922 9.93917C8.09637 8.33939 8.38296 6.02929 9.99934 4.77941C11.6157 3.52953 13.9498 3.81318 15.2127 5.41295C15.5572 5.8494 15.7874 6.34102 15.9057 6.85019C15.9203 6.89868 15.9314 6.94921 15.9389 7.00163L16.4901 10.8831C16.6529 12.0297 15.5005 12.9208 14.4158 12.4871L11.0792 11.1528C10.421 10.9296 9.81814 10.5205 9.35922 9.93917Z"/>
    <path fill-rule="evenodd" clip-rule="evenodd"
          d="M20.7666 6.39241C21.4909 6.97298 21.6026 8.02483 21.016 8.74177C20.798 9.00824 20.5169 9.18944 20.2113 9.28416L20.1808 9.29361L17.583 10.2806L18.0537 7.3392C18.0547 7.33491 18.0557 7.3306 18.0567 7.32628C18.1112 7.08342 18.2217 6.84842 18.3928 6.63934C18.9794 5.9224 20.0422 5.81184 20.7666 6.39241ZM22.5908 10.0039C23.8817 8.42616 23.6359 6.11146 22.0418 4.83385C20.4477 3.55624 18.1089 3.79953 16.8181 5.37724C16.4659 5.80767 16.2271 6.29524 16.0998 6.80229C16.0844 6.85052 16.0723 6.90085 16.0639 6.95313L15.4444 10.8245C15.2614 11.9682 16.3978 12.879 17.49 12.4641L20.8497 11.1877C21.5117 10.9758 22.1217 10.5772 22.5908 10.0039Z"/>
</svg>
