<svg viewBox="0 0 24 24" xmlns="http://www.w3.org/2000/svg">
    <path fill-rule="evenodd" clip-rule="evenodd" fill="currentColor"
          d="M13.5011 3.75C13.5011 3.19772 13.0534 2.75 12.5011 2.75C11.9488 2.75 11.5011 3.19772 11.5011 3.75V4.34209C8.03558 4.79011 5.29031 7.53535 4.84225 11.0009H4.24988C3.69759 11.0009 3.24988 11.4486 3.24988 12.0009C3.24988 12.5532 3.69759 13.0009 4.24988 13.0009H4.84225C5.2903 16.4664 8.03557 19.2117 11.5011 19.6597V20.2518C11.5011 20.8041 11.9488 21.2518 12.5011 21.2518C13.0534 21.2518 13.5011 20.8041 13.5011 20.2518V19.6597C16.9666 19.2116 19.7118 16.4664 20.1598 13.0009H20.7518C21.3041 13.0009 21.7518 12.5532 21.7518 12.0009C21.7518 11.4486 21.3041 11.0009 20.7518 11.0009H20.1598C19.7118 7.5354 16.9666 4.79019 13.5011 4.34211V3.75ZM17.6959 11.0009H18.1369C17.7212 8.6417 15.8603 6.78082 13.5011 6.36503V6.80588C13.5011 7.35817 13.0534 7.80588 12.5011 7.80588C11.9488 7.80588 11.5011 7.35817 11.5011 6.80588V6.36501C9.14188 6.78073 7.28094 8.64165 6.86517 11.0009H7.30576C7.85804 11.0009 8.30576 11.4486 8.30576 12.0009C8.30576 12.5532 7.85804 13.0009 7.30576 13.0009H6.86517C7.28092 15.3601 9.14187 17.221 11.5011 17.6368V17.1959C11.5011 16.6436 11.9488 16.1959 12.5011 16.1959C13.0534 16.1959 13.5011 16.6436 13.5011 17.1959V17.6367C15.8603 17.221 17.7212 15.3601 18.1369 13.0009H17.6959C17.1436 13.0009 16.6959 12.5532 16.6959 12.0009C16.6959 11.4486 17.1436 11.0009 17.6959 11.0009ZM11.0563 12.0009C11.0563 11.203 11.7031 10.5562 12.501 10.5562C13.2988 10.5562 13.9457 11.203 13.9457 12.0009C13.9457 12.7988 13.2988 13.4456 12.501 13.4456C11.7031 13.4456 11.0563 12.7988 11.0563 12.0009ZM12.501 8.55617C10.5985 8.55617 9.05625 10.0984 9.05625 12.0009C9.05625 13.9033 10.5985 15.4456 12.501 15.4456C14.4034 15.4456 15.9457 13.9033 15.9457 12.0009C15.9457 10.0984 14.4034 8.55617 12.501 8.55617Z"/>
</svg>
