<svg viewBox="0 0 119 16" xmlns="http://www.w3.org/2000/svg">
    <path fill-rule="evenodd" clip-rule="evenodd" fill="currentColor"
          d="M69.2161 7.99971C69.2161 11.2154 71.1196 13.8228 74.5226 13.8228C77.9251 13.8228 79.8286 11.2154 79.8286 7.99971C79.8286 4.78353 77.9065 2.17708 74.5226 2.17708C71.1387 2.17708 69.2161 4.78353 69.2161 7.99971ZM66.901 7.99978C66.901 3.58192 69.906 0 74.5222 0C79.1388 0 82.1429 3.58192 82.1429 7.99978C82.1429 12.419 79.1388 16 74.5222 16C69.906 16 66.901 12.419 66.901 7.99978ZM2.21442 4.10192C2.21442 1.6328 5.34256 1.51547 7.20908 3.12067C7.86198 1.20705 7.90871 1.06351 7.90871 1.06351C2.50965 -1.66071 0.0297352 1.93633 0.0297352 4.24991C0.0297352 7.15122 2.10013 8.18896 3.90011 9.09116C5.51261 9.89938 6.90811 10.5988 6.40369 12.4319C6.0133 13.8496 3.63661 14.6575 0.877188 12.895C0.725213 13.2828 0.525964 13.728 0.314771 14.2L0.314767 14.2L0.314755 14.2L0.314726 14.2001L0.314713 14.2001L0.314708 14.2001C0.211286 14.4312 0.105 14.6687 0 14.909C3.65021 16.9093 8.3815 15.9565 8.54419 11.8053C8.66085 8.83427 6.55404 7.69037 4.74019 6.70552C3.39698 5.97622 2.21442 5.33415 2.21442 4.10192ZM15.4557 0.396322L15.4642 15.5515H24.5751C24.5679 15.1786 24.5704 13.9743 24.5751 13.5766H17.7415V8.43076H22.5799C22.5799 8.33448 22.5794 8.22675 22.5789 8.10813L22.5789 8.10735C22.5772 7.70321 22.5749 7.1727 22.5883 6.53714H17.7415V2.40949H24.5751C24.5577 1.22692 24.584 0.396322 24.584 0.396322H15.4557ZM35.3851 7.8182L35.3853 7.8182C35.6636 7.82052 35.9327 7.82276 36.2498 7.82276C37.5972 7.82276 40.3375 7.67877 40.2275 4.88967C40.1223 2.24394 37.0708 2.31374 36.1861 2.33397C36.1247 2.33538 36.0737 2.33655 36.0348 2.33655C35.4096 2.33655 34.7486 2.33877 34.7486 2.33877C34.7486 2.33877 34.7439 4.98433 34.7435 7.81387C34.9767 7.8148 35.1833 7.81652 35.3851 7.8182ZM32.4648 0.39093C33.8998 0.39093 35.5802 0.400707 36.3844 0.420705C36.4271 0.421679 36.4817 0.421907 36.5468 0.422178C37.7003 0.426986 42.1506 0.445536 42.1764 4.86967C42.2006 9.02843 38.7458 9.69771 37.431 9.73726C36.4829 9.76482 35.3084 9.79681 34.7434 9.80659C34.7438 12.6601 34.7511 15.5554 34.7511 15.5554H32.4699L32.4648 0.39093ZM92.3325 7.42304C92.028 7.42304 91.7732 7.41933 91.5079 7.41546C91.3235 7.41278 91.134 7.41002 90.9193 7.40838C90.9214 4.74949 90.9269 2.29902 90.9269 2.29902C90.9269 2.29902 91.5322 2.29014 92.1189 2.29014C92.1482 2.29014 92.1843 2.28965 92.2262 2.28909C92.9853 2.27886 95.686 2.24247 95.9267 4.57972C96.221 7.43184 93.0834 7.42472 92.3754 7.42311L92.3325 7.42304ZM97.8655 4.6766C97.5688 0.531281 93.982 0.488188 92.717 0.472989C92.609 0.471691 92.518 0.470597 92.4473 0.467172C91.6903 0.429397 90.0608 0.408065 88.6471 0.415176V15.5548H90.9274C90.9274 15.5548 90.9206 12.1671 90.9197 9.17311C91.5138 9.17521 91.808 9.16659 92.4605 9.14746C92.6377 9.14227 92.8413 9.1363 93.0845 9.12956L97.2066 15.5539H99.9584L95.3898 8.76115C96.62 8.28785 98.0447 7.18839 97.8655 4.6766ZM50.8192 6.43908H58.2356V0.480469H60.4607V15.6094H58.2356V8.41714L50.8192 8.42825V15.6094H48.5951V0.480469H50.8192V6.43908ZM109.178 10.3518L111.47 2.8466H111.502L113.901 10.3202L109.178 10.3518ZM112.842 0.439697H110.215L105.474 15.6322H107.717C108.416 12.8876 108.652 12.1054 108.652 12.1054L114.519 12.0667C115.205 14.0981 115.719 15.6313 115.719 15.6313L118.043 15.6375L112.842 0.439697Z"/>
</svg>
