<svg viewBox="0 0 32 32" xmlns="http://www.w3.org/2000/svg">
    <path fill-rule="evenodd" clip-rule="evenodd"
          d="M15 8C15 8.55228 14.5523 9 14 9L10 9L10 23L14 23C14.5523 23 15 23.4477 15 24C15 24.5523 14.5523 25 14 25L10 25C8.89543 25 8 24.1046 8 23L8 9C8 7.89543 8.89543 7 10 7L14 7C14.5523 7 15 7.44772 15 8Z"
    />
    <path fill-rule="evenodd" clip-rule="evenodd"
          d="M24.0002 17.4142C24.7812 16.6332 24.7812 15.3668 24.0002 14.5858L21.7073 12.2929C21.3167 11.9024 20.6836 11.9024 20.293 12.2929C19.9025 12.6834 19.9025 13.3166 20.293 13.7071L21.5859 15L13 15C12.4477 15 12 15.4477 12 16C12 16.5523 12.4477 17 13 17L21.5859 17L20.293 18.2929C19.9025 18.6834 19.9025 19.3166 20.293 19.7071C20.6836 20.0976 21.3167 20.0976 21.7073 19.7071L24.0002 17.4142Z"
    />
</svg>
