<svg viewBox="0 0 32 32" xmlns="http://www.w3.org/2000/svg">
    <path fill-rule="evenodd" clip-rule="evenodd"
          d="M15.3319 27.7603C9.11064 22.729 6 18.3342 6 14.5735C6 8.73431 10.4767 4 16.0006 4C21.5233 4 26 8.73431 26 14.5735C26 18.3342 22.8894 22.729 16.6681 27.7603C16.2729 28.0799 15.7271 28.0799 15.3319 27.7603ZM16 25.7224C13.2744 23.4616 11.2836 21.3976 9.96551 19.5351C8.55001 17.535 8 15.8962 8 14.5735C8 9.73229 11.6849 6 16.0006 6C20.315 6 24 9.73214 24 14.5735C24 15.8962 23.45 17.535 22.0345 19.5351C20.7164 21.3976 18.7256 23.4616 16 25.7224Z"
    />
    <path fill-rule="evenodd" clip-rule="evenodd"
          d="M16.0016 18C18.1962 18.0074 19.9837 16.2199 20 14.0017C20 11.7944 18.2083 10 16.0016 10C13.8045 9.99081 12.0145 11.7808 12 14.0017C12.0163 16.2212 13.8058 18.0092 16.0016 18ZM14.0001 14.0008C14.0148 12.8692 14.9234 11.9955 15.9932 12L16.0016 10V12C17.0994 12 17.996 12.8931 18 13.9944C17.9877 15.1278 17.0791 16.0036 16.0084 16L16.0008 16L15.9932 16C14.924 16.0045 14.0157 15.1318 14.0001 14.0008Z"
    />
</svg>
