<svg viewBox="0 0 32 32" xmlns="http://www.w3.org/2000/svg">
    <path fill-rule="evenodd" clip-rule="evenodd" fill="currentColor"
          d="M26 26.0741C26 27.1377 25.1046 28 24 28L8 28C7.46957 28 6.96086 27.7971 6.58579 27.4359C6.21071 27.0747 6 26.5849 6 26.0741C6 24.6616 6.24301 23.2573 6.72055 21.9389C7.19805 20.6207 7.90459 19.404 8.81332 18.3648C9.72252 17.3251 10.8206 16.4792 12.0558 15.8941C13.2927 15.3083 14.6341 15 16 15C17.3659 15 18.7073 15.3083 19.9442 15.8941C21.1794 16.4792 22.2775 17.3251 23.1867 18.3648C24.0954 19.404 24.8019 20.6207 25.2795 21.9389C25.757 23.2573 26 24.6616 26 26.0741ZM8.17929 24.1481C8.2805 23.6107 8.42411 23.0836 8.60896 22.5732C9.011 21.4633 9.60028 20.4548 10.3431 19.6054C11.086 18.7559 11.9679 18.082 12.9385 17.6223C13.9091 17.1625 14.9494 16.9259 16 16.9259C17.0506 16.9259 18.0909 17.1625 19.0615 17.6223C20.0321 18.082 20.914 18.7559 21.6569 19.6054C22.3997 20.4548 22.989 21.4633 23.391 22.5732C23.5759 23.0836 23.7195 23.6107 23.8207 24.1481C23.9396 24.7796 24 25.4251 24 26.0741L8 26.0741C8 25.4251 8.06039 24.7796 8.17929 24.1481Z"
          />
    <path fill-rule="evenodd" clip-rule="evenodd" fill="currentColor"
          d="M16 11C17.6569 11 19 9.65685 19 8C19 6.34315 17.6569 5 16 5C14.3431 5 13 6.34315 13 8C13 9.65685 14.3431 11 16 11ZM16 13C18.7614 13 21 10.7614 21 8C21 5.23858 18.7614 3 16 3C13.2386 3 11 5.23858 11 8C11 10.7614 13.2386 13 16 13Z"
          />
</svg>
