<svg viewBox="0 0 32 32" xmlns="http://www.w3.org/2000/svg">
    <path fill-rule="evenodd" clip-rule="evenodd" fill="currentColor"
          d="M22.0667 15C22.0667 18.866 18.9326 22 15.0667 22C11.2007 22 8.06665 18.866 8.06665 15C8.06665 11.134 11.2007 8 15.0667 8C18.9326 8 22.0667 11.134 22.0667 15ZM20.9118 21.8437C19.3393 23.1881 17.2978 24 15.0667 24C10.0961 24 6.06665 19.9706 6.06665 15C6.06665 10.0294 10.0961 6 15.0667 6C20.0372 6 24.0667 10.0294 24.0667 15C24.0667 17.0206 23.4008 18.8857 22.2765 20.3878C22.3066 20.4136 22.336 20.4409 22.3647 20.4695L26.8467 24.9515C27.3348 25.4397 27.4139 26.152 27.0234 26.5425C26.6329 26.933 25.9206 26.8539 25.4325 26.3658L20.9505 21.8837C20.9373 21.8706 20.9244 21.8572 20.9118 21.8437Z"
    />
</svg>
