<svg width="32" height="32" viewBox="0 0 32 32" xmlns="http://www.w3.org/2000/svg">
    <g id="storefront">
        <g id="Vector">
            <path fill-rule="evenodd" clip-rule="evenodd"
                  d="M6.00001 16.45C6.55229 16.45 7.00001 16.8977 7.00001 17.45V26H25V17.45C25 16.8977 25.4477 16.45 26 16.45C26.5523 16.45 27 16.8977 27 17.45V26C27 26.5304 26.7893 27.0391 26.4142 27.4142C26.0391 27.7893 25.5304 28 25 28H7.00001C6.46958 28 5.96087 27.7893 5.5858 27.4142C5.21072 27.0391 5.00001 26.5304 5.00001 26V17.45C5.00001 16.8977 5.44772 16.45 6.00001 16.45Z"
                  fill="currentColor"
            />
            <path fill-rule="evenodd" clip-rule="evenodd"
                  d="M6.75001 4H25.2582C25.6894 4.00355 26.1081 4.14553 26.4525 4.40497C26.7969 4.66442 27.0489 5.02762 27.1714 5.44108L27.1743 5.45102L28.9618 11.726C29.0477 12.0277 28.9871 12.3522 28.7981 12.6025C28.6091 12.8528 28.3137 13 28 13H4.00001C3.68636 13 3.39088 12.8528 3.2019 12.6025C3.01292 12.3522 2.95234 12.0277 3.03827 11.726L4.82861 5.44107C4.95103 5.02761 5.20308 4.66441 5.54751 4.40497C5.89193 4.14553 6.31059 4.00358 6.74178 4.00003L6.75001 4ZM6.75742 6C6.75503 6.00018 6.75274 6.00104 6.75082 6.00248C6.74896 6.00388 6.74753 6.00578 6.74669 6.00794L5.32465 11H26.6754L25.2533 6.00793C25.2525 6.00577 25.2511 6.00388 25.2492 6.00248C25.2473 6.00104 25.245 6.00018 25.2426 6H6.75742Z"
                  fill="currentColor"
            />
            <path fill-rule="evenodd" clip-rule="evenodd"
                  d="M4.00001 11C4.55229 11 5.00001 11.4477 5.00001 12V14C5.00001 14.7956 5.31608 15.5587 5.87869 16.1213C6.4413 16.6839 7.20436 17 8.00001 17C8.79566 17 9.55872 16.6839 10.1213 16.1213C10.6839 15.5587 11 14.7956 11 14V12C11 11.4477 11.4477 11 12 11C12.5523 11 13 11.4477 13 12V14C13 15.3261 12.4732 16.5979 11.5355 17.5355C10.5979 18.4732 9.32609 19 8.00001 19C6.67393 19 5.40216 18.4732 4.46447 17.5355C3.52679 16.5979 3.00001 15.3261 3.00001 14V12C3.00001 11.4477 3.44772 11 4.00001 11Z"
                  fill="currentColor"/>
            <path fill-rule="evenodd" clip-rule="evenodd"
                  d="M12 11C12.5523 11 13 11.4477 13 12V14C13 14.7956 13.3161 15.5587 13.8787 16.1213C14.4413 16.6839 15.2044 17 16 17C16.7957 17 17.5587 16.6839 18.1213 16.1213C18.6839 15.5587 19 14.7956 19 14V12C19 11.4477 19.4477 11 20 11C20.5523 11 21 11.4477 21 12V14C21 15.3261 20.4732 16.5979 19.5355 17.5355C18.5979 18.4732 17.3261 19 16 19C14.6739 19 13.4022 18.4732 12.4645 17.5355C11.5268 16.5979 11 15.3261 11 14V12C11 11.4477 11.4477 11 12 11Z"
                  fill="currentColor"
            />
            <path fill-rule="evenodd" clip-rule="evenodd"
                  d="M20 11C20.5523 11 21 11.4477 21 12V14C21 14.7956 21.3161 15.5587 21.8787 16.1213C22.4413 16.6839 23.2044 17 24 17C24.7957 17 25.5587 16.6839 26.1213 16.1213C26.6839 15.5587 27 14.7956 27 14V12C27 11.4477 27.4477 11 28 11C28.5523 11 29 11.4477 29 12V14C29 15.3261 28.4732 16.5979 27.5355 17.5355C26.5979 18.4732 25.3261 19 24 19C22.6739 19 21.4022 18.4732 20.4645 17.5355C19.5268 16.5979 19 15.3261 19 14V12C19 11.4477 19.4477 11 20 11Z"
                  fill="currentColor"
            />
        </g>
    </g>
</svg>
