<svg viewBox="0 0 32 32" xmlns="http://www.w3.org/2000/svg">
    <path fill-rule="evenodd" clip-rule="evenodd"
          d="M12.076 11C12.4509 8.59883 14.1542 7 15.9998 7C17.8453 7 19.5487 8.59883 19.9235 11H12.076ZM10.0608 11C10.4605 7.73932 12.7898 5 15.9998 5C19.2098 5 21.539 7.73932 21.9388 11H24.8469C26.064 11 26.999 12.078 26.8268 13.2828L25.1126 25.2828C24.9718 26.2681 24.128 27 23.1327 27H8.86725C7.87195 27 7.02811 26.2681 6.88735 25.2828L5.17306 13.2828C5.00094 12.078 5.93586 11 7.15296 11H10.0608ZM7.15296 13H24.8469L23.1327 25H8.86725L7.15296 13Z"
    />
</svg>
