<svg viewBox="0 0 32 32" xmlns="http://www.w3.org/2000/svg">
    <path fill-rule="evenodd" clip-rule="evenodd"
          d="M13 6C13 5.44772 12.5523 5 12 5C11.4477 5 11 5.44772 11 6V7H10C7.79086 7 6 8.79086 6 11V23C6 25.2091 7.79086 27 10 27H22C24.2091 27 26 25.2091 26 23V15V13V11C26 8.79086 24.2091 7 22 7H21V6C21 5.44772 20.5523 5 20 5C19.4477 5 19 5.44772 19 6V7H13V6ZM24 13V11C24 9.89543 23.1046 9 22 9H21V10C21 10.5523 20.5523 11 20 11C19.4477 11 19 10.5523 19 10V9H13V10C13 10.5523 12.5523 11 12 11C11.4477 11 11 10.5523 11 10V9H10C8.89543 9 8 9.89543 8 11V13H24ZM8 15V23C8 24.1046 8.89543 25 10 25H22C23.1046 25 24 24.1046 24 23V15H8ZM13 18C13 17.4477 13.3838 17 13.8571 17H18.1429C18.6162 17 19 17.4477 19 18C19 18.5523 18.6162 19 18.1429 19H13.8571C13.3838 19 13 18.5523 13 18ZM13.8571 21C13.3838 21 13 21.4477 13 22C13 22.5523 13.3838 23 13.8571 23H18.1429C18.6162 23 19 22.5523 19 22C19 21.4477 18.6162 21 18.1429 21H13.8571Z"
    />
</svg>
