<svg width="40" height="40" viewBox="0 0 40 40" fill="none" xmlns="http://www.w3.org/2000/svg">
<path id="Union" fill-rule="evenodd" clip-rule="evenodd" d="M0.146447 39.1476C-0.0488155 39.3429 -0.0488155 39.6595 0.146447 39.8547C0.341709 40.05 0.658291 40.05 0.853553 39.8547L8.21706 32.4912H37.1219C38.5026 32.4912 39.6219 31.3719 39.6219 29.9912V9.62849C39.6219 8.24777 38.5026 7.12849 37.1219 7.12849H33.5798L39.8547 0.853553C40.05 0.658291 40.05 0.341709 39.8547 0.146447C39.6595 -0.0488156 39.3429 -0.0488154 39.1476 0.146447L32.1656 7.12849H31.0377C30.5469 7.12849 30.0871 6.88831 29.8066 6.48544L28.5425 4.66939C28.0751 3.99794 27.3088 3.59765 26.4907 3.59765H13.6829C12.9717 3.59765 12.2942 3.90051 11.82 4.43043L9.85248 6.62882C9.56792 6.94677 9.16143 7.12849 8.73474 7.12849H2.5C1.11929 7.12849 0 8.24777 0 9.62849V29.9912C0 31.3719 1.11929 32.4912 2.5 32.4912H6.80284L0.146447 39.1476ZM9.21706 31.4912H37.1219C37.9503 31.4912 38.6219 30.8197 38.6219 29.9912V9.62849C38.6219 8.80006 37.9503 8.12849 37.1219 8.12849H32.5798L26.7046 14.0036C27.7659 15.4319 28.3937 17.2013 28.3937 19.1173C28.3937 23.8574 24.5511 27.7 19.8111 27.7C17.895 27.7 16.1256 27.0721 14.6974 26.0109L9.21706 31.4912ZM13.9278 25.3663L7.80284 31.4912H2.5C1.67157 31.4912 1 30.8197 1 29.9912V9.62849C1 8.80006 1.67157 8.12849 2.5 8.12849H8.73474C9.44589 8.12849 10.1234 7.82562 10.5976 7.29571L12.5651 5.09732C12.8497 4.77937 13.2562 4.59765 13.6829 4.59765H26.4907C26.9815 4.59765 27.4413 4.83782 27.7218 5.2407L28.9859 7.05674C29.4533 7.7282 30.2196 8.12849 31.0377 8.12849H31.1656L26.06 13.2341C24.4948 11.5722 22.2741 10.5347 19.8111 10.5347C15.071 10.5347 11.2284 14.3773 11.2284 19.1173C11.2284 21.5804 12.266 23.8011 13.9278 25.3663ZM15.4132 25.2951C16.6536 26.1796 18.1716 26.7 19.8111 26.7C23.9989 26.7 27.3937 23.3051 27.3937 19.1173C27.3937 17.4778 26.8734 15.9598 25.9888 14.7195L15.4132 25.2951ZM25.3526 13.9415L14.6353 24.6588C13.1542 23.2749 12.2284 21.3042 12.2284 19.1173C12.2284 14.9296 15.6233 11.5347 19.8111 11.5347C21.998 11.5347 23.9687 12.4605 25.3526 13.9415Z" fill="#595959"/>
</svg>
