<svg viewBox="0 0 24 24" xmlns="http://www.w3.org/2000/svg">
    <path
        d="M12.3232 20.1798C12.387 20.1505 12.4473 20.1121 12.5018 20.0648C13.6487 19.096 15.3617 17.6012 16.3413 16.6124C17.604 15.3384 18.6375 14.1288 19.4067 13.0154C20.4057 11.5685 21 10.2338 21 9.08734C21 6.20788 18.7562 3.75 15.8547 3.75C14.9156 3.75 14.0069 4.24424 13.2783 4.81555C12.814 5.17956 12.3788 5.60933 12 6.05456C11.6212 5.60933 11.186 5.17956 10.7217 4.81555C9.99307 4.24424 9.08442 3.75 8.14528 3.75C5.24383 3.75 3 6.20788 3 9.08734C3 10.2338 3.59415 11.5683 4.59318 13.0152C5.36243 14.1287 6.39597 15.3384 7.65871 16.6124C8.63835 17.6012 10.3513 19.096 11.4982 20.0648C11.5527 20.1121 11.613 20.1505 11.6768 20.1798C11.7791 20.2268 11.8897 20.25 12 20.25C12.1103 20.25 12.2209 20.2268 12.3232 20.1798Z"/>
    <path 
          d="M12.3232 20.1798C12.387 20.1505 12.4473 20.1121 12.5018 20.0648C13.6487 19.096 15.3617 17.6012 16.3413 16.6124C17.604 15.3384 18.6375 14.1288 19.4067 13.0154C20.4057 11.5685 21 10.2338 21 9.08734C21 6.20788 18.7562 3.75 15.8547 3.75C14.9156 3.75 14.0069 4.24424 13.2783 4.81555C12.814 5.17956 12.3788 5.60933 12 6.05456C11.6212 5.60933 11.186 5.17956 10.7217 4.81555C9.99307 4.24424 9.08442 3.75 8.14528 3.75C5.24383 3.75 3 6.20788 3 9.08734C3 10.2338 3.59415 11.5683 4.59318 13.0152C5.36243 14.1287 6.39597 15.3384 7.65871 16.6124C8.63835 17.6012 10.3513 19.096 11.4982 20.0648C11.5527 20.1121 11.613 20.1505 11.6768 20.1798C11.7791 20.2268 11.8897 20.25 12 20.25C12.1103 20.25 12.2209 20.2268 12.3232 20.1798ZM4.49502 9.08734C4.49502 6.87113 6.19678 5.18213 8.14528 5.18213C8.56666 5.18213 9.13924 5.42547 9.77477 5.92378C10.385 6.40227 10.9545 7.03918 11.3632 7.64464C11.3932 7.69156 11.4292 7.73554 11.4709 7.77545C11.6131 7.91212 11.8049 7.98537 12 7.98554C12.1055 7.98564 12.212 7.96435 12.3121 7.92015C12.3916 7.88524 12.4653 7.83672 12.5291 7.77545C12.5708 7.73554 12.6068 7.69156 12.6368 7.64464C13.0455 7.03918 13.615 6.40227 14.2252 5.92378C14.8608 5.42547 15.4333 5.18213 15.8547 5.18213C17.8032 5.18213 19.505 6.87113 19.505 9.08734C19.505 9.80483 19.1112 10.8474 18.16 12.225C17.4521 13.2497 16.4789 14.3937 15.2571 15.6263C14.4524 16.4386 13.0938 17.6405 12 18.5765C10.9062 17.6405 9.54768 16.4387 8.74301 15.6264C7.52124 14.3938 6.54795 13.2497 5.84001 12.225C4.88884 10.8474 4.49502 9.80483 4.49502 9.08734Z"
          fill="currentColor"/>
</svg>
