<svg viewBox="0 0 32 32" xmlns="http://www.w3.org/2000/svg">
    <path fill-rule="evenodd" clip-rule="evenodd"
          d="M16 26C21.5228 26 26 21.5228 26 16C26 10.4772 21.5228 6 16 6C10.4772 6 6 10.4772 6 16C6 21.5228 10.4772 26 16 26ZM16 28C22.6274 28 28 22.6274 28 16C28 9.37258 22.6274 4 16 4C9.37258 4 4 9.37258 4 16C4 22.6274 9.37258 28 16 28Z"
    />
    <path
        d="M17.1866 17.875H15.227C15.227 17.4763 15.2584 17.129 15.321 16.8333C15.3885 16.5332 15.4994 16.2643 15.6537 16.0269C15.8079 15.7849 16.0152 15.5542 16.2755 15.3347C16.502 15.151 16.6997 14.9785 16.8684 14.8172C17.0371 14.6514 17.1673 14.4812 17.2589 14.3065C17.3504 14.1317 17.3962 13.9413 17.3962 13.7352C17.3962 13.4888 17.3553 13.2872 17.2733 13.1304C17.1962 12.9691 17.0805 12.8481 16.9262 12.7675C16.7768 12.6823 16.5888 12.6398 16.3623 12.6398C16.1743 12.6398 15.9983 12.6801 15.8344 12.7608C15.6705 12.8369 15.538 12.9579 15.4367 13.1237C15.3355 13.2894 15.2801 13.5067 15.2704 13.7755H13C13.0145 13.1349 13.1711 12.6107 13.47 12.203C13.7689 11.7908 14.169 11.4884 14.6703 11.2957C15.1764 11.0986 15.7404 11 16.3623 11C17.0516 11 17.6421 11.1008 18.1338 11.3024C18.6303 11.504 19.0087 11.802 19.269 12.1962C19.5341 12.5905 19.6667 13.0721 19.6667 13.6411C19.6667 14.0309 19.5871 14.3737 19.4281 14.6694C19.269 14.9606 19.0569 15.2339 18.7918 15.4892C18.5266 15.7401 18.2326 16.0022 17.9096 16.2755C17.6349 16.504 17.4469 16.7415 17.3456 16.9879C17.2444 17.2298 17.1914 17.5255 17.1866 17.875ZM14.9667 19.9315C14.9667 19.6313 15.0824 19.3781 15.3138 19.172C15.55 18.966 15.8561 18.8629 16.2321 18.8629C16.6081 18.8629 16.9118 18.966 17.1432 19.172C17.3745 19.3781 17.4902 19.6313 17.4902 19.9315C17.4902 20.2361 17.3745 20.4915 17.1432 20.6976C16.9118 20.8992 16.6081 21 16.2321 21C15.8561 21 15.55 20.8992 15.3138 20.6976C15.0824 20.4915 14.9667 20.2361 14.9667 19.9315Z"
    />
</svg>
