<svg fill="white" viewBox="0 0 32 32" xmlns="http://www.w3.org/2000/svg">
    <path fill-rule="evenodd" clip-rule="evenodd"
          d="M25 8H7C5.89543 8 5 8.89543 5 10V22C5 23.1046 5.89543 24 7 24H25C26.1046 24 27 23.1046 27 22V10C27 8.89543 26.1046 8 25 8ZM7 6C4.79086 6 3 7.79086 3 10V22C3 24.2091 4.79086 26 7 26H25C27.2091 26 29 24.2091 29 22V10C29 7.79086 27.2091 6 25 6H7Z"
    />
    <path fill-rule="evenodd" clip-rule="evenodd"
          d="M18.0348 17.4826C16.8857 18.5434 15.1143 18.5434 13.9652 17.4826L3.99994 8.41399L5.00091 6.58783L15.3217 16.013C15.7048 16.3666 16.2952 16.3666 16.6783 16.013L25.5869 7.99999L28.3271 8.08691L18.0348 17.4826Z"
    />
</svg>
