<svg xmlns="http://www.w3.org/2000/svg" width="25" height="24" viewBox="0 0 25 24" fill="none">
    <rect width="18.9131" height="13.8326" rx="1"
          transform="matrix(0.962763 -0.270346 0.284295 0.958737 0.000488281 5.6131)" fill="#D7B97C"/>
    <path fill-rule="evenodd" clip-rule="evenodd"
          d="M10.6732 9.8054C12.106 12.4444 11.8224 13.7124 11.7316 14.2907C12.12 13.3045 12.5252 11.2192 11.5489 9.42122C10.2701 7.06582 10.2224 5.91641 10.4105 5.0843C9.55624 7.36203 10.1741 8.88613 10.6732 9.8054Z"
          fill="black"/>
    <rect x="6.00049" y="9.61304" width="18.9489" height="13.805" rx="1" fill="black"/>
    <path fill-rule="evenodd" clip-rule="evenodd"
          d="M15.1091 16.7163C15.7338 19.6389 15.1001 20.7809 14.8481 21.3121C15.5023 20.4692 16.4855 18.5747 16.0598 16.5835C15.5024 13.975 15.7839 12.8576 16.2016 12.1088C14.7322 14.067 14.8916 15.6983 15.1091 16.7163Z"
          fill="#F2F2F2"/>
</svg>
