<svg viewBox="0 0 32 32" xmlns="http://www.w3.org/2000/svg" fill="none">
    <rect width="18.8148" height="13.9078" rx="1" transform="matrix(0.872198 -0.489153 0.510926 0.859625 2 11.2033)"
          fill="#D7B97C"/>
    <path fill-rule="evenodd" clip-rule="evenodd"
          d="M13.4011 12.7864C15.4465 15.0141 15.4855 16.3108 15.5407 16.8932C15.6733 15.8456 15.5496 13.7273 14.1561 12.2096C12.3306 10.2214 11.9993 9.11694 11.9756 8.26553C11.711 10.6751 12.6887 12.0105 13.4011 12.7864Z"
          fill="currentColor"/>
    <rect width="18.9131" height="13.8326" rx="1"
          transform="matrix(0.967756 -0.251889 0.265912 0.963997 6.82782 13.5531)" fill="currentColor"/>
    <path fill-rule="evenodd" clip-rule="evenodd"
          d="M17.4186 17.9487C18.8007 20.6146 18.4929 21.877 18.391 22.4534C18.7983 21.4748 19.2432 19.3977 18.3015 17.5813C17.068 15.2019 17.0423 14.0518 17.2462 13.2234C16.3486 15.4844 16.9372 17.02 17.4186 17.9487Z"
          fill="white"/>
    <rect x="11.2504" y="16.25" width="18.4489" height="13.305" rx="0.75" fill="white" stroke="#D7D7D7"
          stroke-width="0.5"/>
    <path fill-rule="evenodd" clip-rule="evenodd"
          d="M20.1097 23.1034C20.7344 26.026 20.1007 27.1679 19.8487 27.6991C20.5028 26.8562 21.486 24.9617 21.0604 22.9705C20.5029 20.362 20.7845 19.2447 21.2022 18.4958C19.7327 20.454 19.8921 22.0853 20.1097 23.1034Z"
          fill="currentColor"/>
</svg>
