<svg viewBox="0 0 80 80" fill="none" xmlns="http://www.w3.org/2000/svg">
    <path
        d="M54.5197 26.9958H25.9228C23.1761 26.9958 20.9495 29.2224 20.9495 31.9692V40.5881C20.9495 42.1199 21.6552 43.5663 22.8632 44.5082C27.748 48.3168 35.0451 53.9941 35.8163 54.5446C36.9175 55.3307 38.0188 55.5927 39.946 55.5927C41.4877 55.5927 42.9744 54.8939 43.525 54.5446L57.431 44.5042C58.726 43.5693 59.4931 42.0692 59.4931 40.472V31.9692C59.4931 29.2224 57.2664 26.9958 54.5197 26.9958Z"
        fill="#F2B3C1"/>
    <path fill-rule="evenodd" clip-rule="evenodd"
          d="M47.2482 34.8814C47.8405 35.4614 47.8564 36.4178 47.2835 37.0176L39.0422 45.6468L33.248 40.0808C32.6502 39.5065 32.6254 38.5503 33.1925 37.9451C33.7597 37.3398 34.704 37.3146 35.3018 37.8889L38.9518 41.3951L45.1384 34.9173C45.7113 34.3175 46.6558 34.3015 47.2482 34.8814Z"
          fill="currentColor"/>
    <path fill-rule="evenodd" clip-rule="evenodd"
          d="M44.7855 34.5945C45.5376 33.807 46.7805 33.7857 47.5586 34.5476C48.3335 35.3063 48.354 36.5547 47.605 37.3389L39.0407 46.3063L32.9093 40.4163C32.1272 39.665 32.0951 38.4169 32.8365 37.6255C33.5811 36.8309 34.8237 36.7975 35.6091 37.5519L38.9218 40.7342L44.7855 34.5945ZM46.9062 35.2139C46.4996 34.8157 45.8534 34.8265 45.4599 35.2386L38.9502 42.0546L34.9631 38.2244C34.5528 37.8303 33.9067 37.8472 33.517 38.2631C33.1242 38.6824 33.1418 39.3466 33.5553 39.7438L39.0122 44.9859L46.9306 36.6948C47.3273 36.2795 47.3161 35.6152 46.9062 35.2139Z"
          fill="#F2B3C1"/>
    <path fill-rule="evenodd" clip-rule="evenodd"
          d="M56.5496 26.0758C55.6936 26.0115 55.0519 25.2655 55.1162 24.4096L55.2559 22.5498C55.3202 21.6939 56.0662 21.0521 56.9221 21.1164C57.7781 21.1807 58.4198 21.9267 58.3555 22.7827L58.2158 24.6425C58.1515 25.4984 57.4055 26.1401 56.5496 26.0758Z"
          fill="currentColor"/>
    <path fill-rule="evenodd" clip-rule="evenodd"
          d="M59.1676 27.7766C58.6078 27.1259 58.6816 26.1446 59.3323 25.5848L60.7461 24.3686C61.3968 23.8088 62.3781 23.8825 62.9379 24.5332C63.4976 25.1839 63.4239 26.1652 62.7732 26.725L61.3594 27.9413C60.7087 28.501 59.7274 28.4273 59.1676 27.7766Z"
          fill="currentColor"/>
    <path fill-rule="evenodd" clip-rule="evenodd"
          d="M60.7261 30.4171C60.7904 29.5612 61.5364 28.9194 62.3923 28.9837L64.2521 29.1235C65.108 29.1878 65.7498 29.9338 65.6855 30.7897C65.6212 31.6456 64.8752 32.2874 64.0193 32.2231L62.1595 32.0834C61.3035 32.0191 60.6618 31.2731 60.7261 30.4171Z"
          fill="currentColor"/>
    <path fill-rule="evenodd" clip-rule="evenodd"
          d="M6.82045 30.8241L34.6829 52.2519C37.6645 54.5449 41.8075 54.5741 44.8212 52.3234L73.6334 30.8053L45.0242 11.0416C42.1544 9.05913 38.3576 9.05829 35.4869 11.0395L6.82045 30.8241ZM5.58667 29.7872L34.6041 9.7604C38.0064 7.41229 42.5064 7.41328 45.9076 9.7629L74.8727 29.7725C75.5723 30.2558 75.5912 31.2829 74.91 31.7917L45.7511 53.5687C42.1794 56.2362 37.2692 56.2015 33.7355 53.4839L5.53494 31.7961C4.86662 31.2821 4.89279 30.2661 5.58667 29.7872Z"
          fill="currentColor"/>
    <path fill-rule="evenodd" clip-rule="evenodd"
          d="M6.37625 30.1049H5.67107C5.30045 30.1049 5 30.3644 5 30.6845V72.4205C5 72.7406 5.30045 73.0002 5.67107 73.0002H74.7913C75.1619 73.0002 75.4624 72.7406 75.4624 72.4205V30.6845C75.4624 30.3644 75.1619 30.1049 74.7913 30.1049H74.0312V31.2642H74.1203V71.8408H6.34214V31.2642H6.37625V30.1049Z"
          fill="currentColor"/>
</svg>
