<svg width="24" height="24" viewBox="0 0 24 24" fill="none" xmlns="http://www.w3.org/2000/svg">
<g id="notification">
<path id="Union" fill-rule="evenodd" clip-rule="evenodd" d="M8.2264 9.85846C8.2264 7.52093 9.88259 5.75 12.2726 5.75C14.6626 5.75 16.3188 7.52093 16.3188 9.85846V12.6897C16.3188 13.1302 16.4158 13.5653 16.6029 13.9641L16.7834 14.3487H7.66139L7.67963 14.3228C8.03544 13.8173 8.2264 13.2142 8.2264 12.596V9.85846ZM12.2726 3.75C8.71075 3.75 6.2264 6.48485 6.2264 9.85846V12.596C6.2264 12.8021 6.16274 13.0031 6.04414 13.1716L4.91691 14.7731C4.45057 15.4357 4.92445 16.3487 5.73466 16.3487H18.3572C19.0898 16.3487 19.5737 15.5871 19.2625 14.9239L18.4135 13.1145C18.3511 12.9816 18.3188 12.8366 18.3188 12.6897V9.85846C18.3188 6.48485 15.8344 3.75 12.2726 3.75ZM11.2575 17.9235C11.2575 17.3712 10.8098 16.9235 10.2575 16.9235C9.7052 16.9235 9.25749 17.3712 9.25749 17.9235C9.25749 19.5612 10.8512 20.4983 12.2729 20.4983C13.6945 20.4983 15.2883 19.5612 15.2883 17.9235C15.2883 17.3712 14.8406 16.9235 14.2883 16.9235C13.736 16.9235 13.2883 17.3712 13.2883 17.9235C13.2883 17.9905 13.2561 18.1133 13.0823 18.2491C12.907 18.3861 12.6241 18.4983 12.2729 18.4983C11.9216 18.4983 11.6388 18.3861 11.4635 18.2491C11.2896 18.1133 11.2575 17.9905 11.2575 17.9235Z" fill="black"/>
</g>
</svg>
