<svg viewBox="0 0 32 32" xmlns="http://www.w3.org/2000/svg">
    <path fill-rule="evenodd" clip-rule="evenodd"
          d="M23 5H11.2879C9.63105 5 8.2879 6.34315 8.2879 8V20H7.99991C6.41798 20 4.90067 21.305 5.02483 23.1353C5.08192 23.9769 5.29959 25.2628 6.52438 26.1314C7.54697 26.8566 8.90974 27 10.2879 27H20.9847C20.9911 27.0001 20.9974 27.0001 21.0038 27.0001C21.0082 27.0001 21.0127 27.0001 21.0171 27H23C24.6569 27 26 25.6569 26 24V8C26 6.34315 24.6569 5 23 5ZM21.0784 25H23C23.5523 25 24 24.5523 24 24V8C24 7.44772 23.5523 7 23 7H11.2879C10.7356 7 10.2879 7.44772 10.2879 8V20H15.8899C16.5915 20 17.1569 20.3635 17.5318 20.7433C17.9121 21.1286 18.1979 21.6274 18.3338 22.1285C18.6706 23.3705 19.6688 24.7561 21.0784 25ZM9.2879 22H8.99963H7.99991C7.44763 22 6.98287 22.4489 7.02025 22.9999C7.11069 24.3333 7.60345 25 10.2879 25H17.5885C16.99 24.2335 16.5993 23.3738 16.4035 22.652C16.3591 22.4882 16.25 22.2918 16.1083 22.1482C15.9796 22.0178 15.8993 22.0021 15.8897 22.0003L15.8887 22L15.8894 22H9.2879ZM14.0001 12.4916C14.0001 11.9393 14.4478 11.4916 15.0001 11.4916H20.1199C20.6721 11.4916 21.1199 11.9393 21.1199 12.4916C21.1199 13.0439 20.6721 13.4916 20.1199 13.4916H15.0001C14.4478 13.4916 14.0001 13.0439 14.0001 12.4916ZM15.0001 15.5424C14.4478 15.5424 14.0001 15.9901 14.0001 16.5424C14.0001 17.0946 14.4478 17.5424 15.0001 17.5424H20.1199C20.6721 17.5424 21.1199 17.0946 21.1199 16.5424C21.1199 15.9901 20.6721 15.5424 20.1199 15.5424H15.0001Z"
    />
</svg>
