<svg viewBox="0 0 32 32" xmlns="http://www.w3.org/2000/svg">
    <path fill-rule="evenodd" clip-rule="evenodd"
          d="M13.5624 5.48622C14.5834 3.50459 17.4166 3.50459 18.4376 5.48622C19.051 6.67695 20.435 7.2502 21.7107 6.84201C23.8339 6.1627 25.8373 8.16613 25.158 10.2893C24.7498 11.565 25.3231 12.949 26.5138 13.5624C28.4954 14.5834 28.4954 17.4166 26.5138 18.4376C25.3231 19.051 24.7498 20.435 25.158 21.7107C25.8373 23.8339 23.8339 25.8373 21.7107 25.158C20.435 24.7498 19.051 25.3231 18.4376 26.5138C17.4166 28.4954 14.5834 28.4954 13.5624 26.5138C12.949 25.3231 11.565 24.7498 10.2893 25.158C8.16613 25.8373 6.1627 23.8339 6.84201 21.7107C7.2502 20.435 6.67695 19.051 5.48622 18.4376C3.50459 17.4166 3.50459 14.5834 5.48622 13.5624C6.67695 12.949 7.2502 11.565 6.84201 10.2893C6.1627 8.16613 8.16613 6.1627 10.2893 6.84201C11.565 7.2502 12.949 6.67695 13.5624 5.48622ZM9.14416 8.87675C11.7426 9.70814 14.5614 8.54055 15.8109 6.11529C15.8427 6.05362 15.8696 6.03609 15.8842 6.02759C15.9076 6.01392 15.9476 6 16 6C16.0524 6 16.0924 6.01392 16.1158 6.02759C16.1304 6.03609 16.1573 6.05362 16.1891 6.11529C17.4386 8.54055 20.2574 9.70814 22.8558 8.87675C22.9219 8.85561 22.9533 8.86224 22.9697 8.86654C22.9959 8.87346 23.034 8.89187 23.0711 8.92893C23.1081 8.966 23.1265 9.00408 23.1335 9.03035C23.1378 9.04666 23.1444 9.07808 23.1233 9.14416C22.2919 11.7426 23.4594 14.5614 25.8847 15.8109C25.9464 15.8427 25.9639 15.8696 25.9724 15.8842C25.9861 15.9076 26 15.9476 26 16C26 16.0524 25.9861 16.0924 25.9724 16.1158C25.9639 16.1304 25.9464 16.1573 25.8847 16.1891C23.4594 17.4386 22.2919 20.2574 23.1233 22.8558C23.1444 22.9219 23.1378 22.9533 23.1335 22.9697C23.1265 22.9959 23.1081 23.034 23.0711 23.0711C23.034 23.1081 22.9959 23.1265 22.9697 23.1335C22.9533 23.1378 22.9219 23.1444 22.8558 23.1233C20.2574 22.2919 17.4386 23.4594 16.1891 25.8847C16.1573 25.9464 16.1304 25.9639 16.1158 25.9724C16.0924 25.9861 16.0524 26 16 26C15.9476 26 15.9076 25.9861 15.8842 25.9724C15.8696 25.9639 15.8427 25.9464 15.8109 25.8847C14.5614 23.4594 11.7426 22.2919 9.14416 23.1233C9.07808 23.1444 9.04666 23.1378 9.03035 23.1335C9.00408 23.1265 8.966 23.1081 8.92893 23.0711C8.89187 23.034 8.87346 22.9959 8.86654 22.9697C8.86224 22.9533 8.85561 22.9219 8.87675 22.8558C9.70814 20.2574 8.54055 17.4386 6.11529 16.1891C6.05362 16.1573 6.03609 16.1304 6.02759 16.1158C6.01392 16.0924 6 16.0524 6 16C6 15.9476 6.01392 15.9076 6.02759 15.8842C6.03609 15.8696 6.05362 15.8427 6.11529 15.8109C8.54055 14.5614 9.70814 11.7426 8.87675 9.14416C8.85561 9.07808 8.86224 9.04666 8.86654 9.03035C8.87346 9.00408 8.89187 8.966 8.92893 8.92893C8.966 8.89187 9.00408 8.87346 9.03035 8.86654C9.04666 8.86224 9.07808 8.85561 9.14416 8.87675Z"
    />
    <path fill-rule="evenodd" clip-rule="evenodd"
          d="M20.1634 16.0817C20.1634 18.336 18.336 20.1634 16.0817 20.1634C13.8274 20.1634 12 18.336 12 16.0817C12 13.8274 13.8274 12 16.0817 12C18.336 12 20.1634 13.8274 20.1634 16.0817ZM18 16C18 17.1046 17.1046 18 16 18C14.8954 18 14 17.1046 14 16C14 14.8954 14.8954 14 16 14C17.1046 14 18 14.8954 18 16Z"
    />
</svg>
