<svg viewBox="0 0 20 20" fill="none" xmlns="http://www.w3.org/2000/svg">
    <path fill-rule="evenodd" clip-rule="evenodd"
          d="M17.0561 12.9162L12.4551 4.92793C11.7425 3.69069 9.96099 3.69069 9.24838 4.92793L4.64741 12.9162C3.9348 14.1534 4.82556 15.7 6.25078 15.7H15.4527C16.8779 15.7 17.7687 14.1534 17.0561 12.9162ZM10.3638 5.57344C10.5807 5.19689 11.1229 5.19689 11.3397 5.57344L15.9407 13.5617C16.1576 13.9382 15.8865 14.4089 15.4527 14.4089H6.25078C5.81702 14.4089 5.54592 13.9382 5.7628 13.5617L10.3638 5.57344ZM11.5245 8.3572C11.5245 8.0007 11.2362 7.71169 10.8805 7.71169C10.5248 7.71169 10.2365 8.0007 10.2365 8.3572V10.3744C10.2365 10.7309 10.5248 11.02 10.8805 11.02C11.2362 11.02 11.5245 10.7309 11.5245 10.3744V8.3572ZM10.8805 13.4406C11.3473 13.4406 11.7257 13.0613 11.7257 12.5934C11.7257 12.1255 11.3473 11.7462 10.8805 11.7462C10.4137 11.7462 10.0353 12.1255 10.0353 12.5934C10.0353 13.0613 10.4137 13.4406 10.8805 13.4406Z"
          fill="#980000"/>
</svg>
